# Blender v2.75 (sub 0) OBJ File: ''
# www.blender.org
mtllib box.mtl
o Cube
v 1.000000 -1.000000 -1.000000
v 1.000000 -1.000000 1.000000
v -1.000000 -1.000000 1.000000
v -1.000000 -1.000000 -1.000000
v 1.000000 1.000000 -0.999999
v 0.999999 1.000000 1.000001
v -1.000000 1.000000 1.000000
v -1.000000 1.000000 -1.000000
v 0.355615 1.452075 -0.355615
v 0.355615 1.452075 0.355615
v -0.355615 1.452075 0.355615
v -0.355615 1.452075 -0.355615
vn 0.000000 -1.000000 0.000000
vn -0.000000 0.818600 0.574300
vn 1.000000 0.000000 0.000000
vn -0.000000 -0.000000 1.000000
vn -1.000000 -0.000000 -0.000000
vn 0.000000 0.000000 -1.000000
vn 0.000000 1.000000 0.000000
vn 0.574300 0.818600 0.000000
vn -0.574300 0.818600 -0.000000
vn 0.000000 0.818600 -0.574300
usemtl Material
s off
f 1//1 2//1 3//1 4//1
f 7//2 6//2 10//2 11//2
f 1//3 5//3 6//3 2//3
f 2//4 6//4 7//4 3//4
f 3//5 7//5 8//5 4//5
f 5//6 1//6 4//6 8//6
f 9//7 12//7 11//7 10//7
f 6//8 5//8 9//8 10//8
f 8//9 7//9 11//9 12//9
f 5//10 8//10 12//10 9//10
