# Blender v2.75 (sub 0) OBJ File: 'lvl2.blend'
# www.blender.org
mtllib bRoof.mtl
o farm_barn_farm_barn_mesh.005_farm_barn_farm_barn_mesh.037
v -0.794488 1.323727 -1.000478
v -0.796664 1.909418 -0.377937
v -0.796664 2.025722 -0.383895
v -0.794488 1.424002 -1.077606
v 1.482521 1.909418 -0.333543
v 1.484697 1.296249 -0.962562
v 1.484697 1.391024 -1.032099
v 1.482521 2.025722 -0.330617
v -0.798936 1.304025 0.276524
v -0.798936 1.403709 0.343381
v 1.480249 1.333656 0.313278
v 1.480249 1.439272 0.387492
v 0.340657 1.373132 0.365437
v 0.342929 1.977362 -0.357255
v 0.345104 1.359154 -1.054852
v 0.340657 1.270483 0.294903
v 0.345104 1.261627 -0.981520
v 1.373554 -0.210096 -0.893718
v 1.373554 1.496712 -0.893717
v 1.371590 1.992981 -0.332326
v 1.371590 -0.209843 -0.332327
v -0.683776 1.496712 -0.941810
v -0.683776 0.530389 -0.941808
v -0.685739 0.530641 -0.380417
v -0.685739 1.992980 -0.380419
v 1.369539 1.496712 0.253679
v 1.369541 -0.210096 0.253679
v -0.687790 0.530389 0.205588
v -0.687790 1.496712 0.205587
v -0.025893 1.397549 0.221060
v -0.025893 0.849379 0.221060
v -0.045520 0.849379 -0.928126
v -0.045520 1.397549 -0.928128
v -2.157287 -1.254522 -1.704720
v 1.975893 -1.254522 -1.704720
v -1.360039 0.089728 -1.704720
v -0.042272 1.004561 -1.704720
v 1.220147 0.089728 -1.704720
v -1.360041 -1.253335 -1.704720
v -0.042273 -1.260911 -1.704720
v 1.220146 -1.253335 -1.704720
v -0.042272 1.004561 -1.493396
v 1.220147 0.089728 -1.493396
v -2.157287 -1.254522 -1.493397
v -1.360039 0.089728 -1.493396
v 1.975893 -1.254522 -1.493397
v -1.360041 -1.253335 -1.493397
v -0.042273 -1.260911 -1.493397
v 1.220146 -1.253335 -1.493397
v -2.157287 -1.254523 1.870904
v 1.975891 -1.254523 1.870904
v -1.360041 0.089728 1.870904
v -0.042273 1.004560 1.870904
v 1.220146 0.089728 1.870904
v 1.220146 -1.244700 1.870904
v -1.360041 -1.253695 1.870904
v -0.042273 -1.264973 1.870904
v 1.975891 -1.254523 1.580652
v 1.220146 0.089728 1.580653
v -1.360041 0.089728 1.580653
v -0.042273 1.004560 1.580653
v -1.360041 -1.253695 1.580653
v -0.042273 -1.264973 1.580653
v -2.157287 -1.254523 1.580652
v 1.220146 -1.244699 1.580653
v 2.249524 -1.154567 2.095648
v 1.388633 0.160446 2.095648
v 1.309285 0.004531 2.095648
v 2.112699 -1.310480 2.095648
v -1.526900 0.160446 2.095646
v -2.438249 -1.154567 2.095646
v -2.295551 -1.310480 2.095646
v -1.450253 0.004531 2.095646
v 0.651289 0.666090 2.095648
v 0.611393 0.510176 2.095648
v -0.037862 1.124445 2.544374
v -0.040887 1.003748 2.544374
v -0.782382 0.655318 2.095648
v -0.745569 0.499404 2.095648
v -1.526900 0.160447 -1.961107
v -0.782381 0.655319 -1.961107
v -0.745570 0.499405 -1.961107
v -1.450253 0.004532 -1.961107
v -0.037863 1.181595 -2.521071
v -0.040886 1.025682 -2.521071
v 0.651289 0.684174 -1.961106
v 0.611392 0.528259 -1.961106
v 1.388632 0.160447 -1.961106
v 1.309283 0.004532 -1.961106
v -2.438247 -1.154566 -1.961108
v -2.295549 -1.310479 -1.961108
v 2.249523 -1.154566 -1.961106
v 2.112700 -1.310479 -1.961106
v 2.231717 -1.242165 0.035155
v 1.377420 0.059653 0.035155
v -1.515783 0.059653 0.035153
v -2.420151 -1.242166 0.035153
v 0.645723 0.605265 0.035155
v -0.038150 1.024166 -0.030493
v -0.765344 0.528775 0.013153
v -2.278545 -1.387629 0.035153
v 2.095940 -1.387629 0.035155
v 1.911185 -0.983000 0.093146
v 1.926736 -1.054656 -1.435836
v 1.926736 -1.054656 1.671325
v -1.986329 -0.942026 0.093144
v -2.002109 -1.013680 1.671323
v -2.002107 -1.013679 -1.435838
v 1.209408 -0.056588 -1.435836
v -1.351132 -0.056588 -1.435837
v 0.561843 0.449057 -1.435836
v -0.043400 0.898052 -1.864726
v -0.697267 0.438285 -1.435837
v -1.351134 -0.056589 1.671323
v -0.697266 0.438285 1.671323
v -0.043399 0.898051 2.015014
v 0.561842 0.449056 1.671325
v 1.209406 -0.056589 1.671325
v -1.341227 -0.063751 0.070209
v -0.043399 0.898051 -0.058895
v 0.561843 0.449057 -0.025068
v 1.175031 -0.125314 0.093146
vt 0.849780 0.338343
vt 0.841895 0.345299
vt 0.793156 0.284779
vt 0.802405 0.284094
vt 0.859026 0.282716
vt 0.849780 0.283276
vt 0.898639 0.219622
vt 0.906342 0.225523
vt 0.841765 0.219622
vt 0.849780 0.225398
vt 0.906342 0.338400
vt 0.898112 0.345234
vt 0.623386 0.200091
vt 0.672894 0.198789
vt 0.669045 0.299595
vt 0.620952 0.300888
vt 0.672894 0.400402
vt 0.626217 0.401685
vt 0.853972 0.218414
vt 0.806080 0.219622
vt 0.800918 0.118824
vt 0.850123 0.117607
vt 0.803455 0.018025
vt 0.853972 0.016801
vt 0.615452 0.199953
vt 0.612782 0.300742
vt 0.617811 0.401532
vt 0.795912 0.017885
vt 0.793156 0.118676
vt 0.798099 0.219466
vt 0.521457 0.198789
vt 0.566140 0.198811
vt 0.566140 0.393616
vt 0.521458 0.349729
vt 0.672894 0.242676
vt 0.717577 0.198789
vt 0.717577 0.328110
vt 0.672894 0.328132
vt 0.612782 0.198789
vt 0.612782 0.349729
vt 0.764219 0.242676
vt 0.764219 0.328132
vt 0.657307 0.198789
vt 0.605784 0.075351
vt 0.649414 0.075351
vt 0.580395 0.016801
vt 0.657307 0.016801
vt 0.793156 0.198789
vt 0.665199 0.073257
vt 0.708830 0.073257
vt 0.734219 0.016801
vt 0.515030 0.956492
vt 0.514877 0.901819
vt 0.469709 0.901673
vt 0.469967 0.993896
vt 0.422562 0.902152
vt 0.422715 0.956825
vt 0.541917 0.901673
vt 0.394038 0.902206
vt 0.401065 0.554770
vt 0.446128 0.592175
vt 0.446385 0.499948
vt 0.401217 0.500094
vt 0.493380 0.555103
vt 0.493532 0.500427
vt 0.374178 0.499948
vt 0.522056 0.500481
vt 0.246904 0.725253
vt 0.246889 0.733856
vt 0.281473 0.733857
vt 0.281489 0.725254
vt 0.372884 0.737072
vt 0.372885 0.745675
vt 0.429306 0.745577
vt 0.429304 0.736974
vt 0.318622 0.736974
vt 0.318624 0.745577
vt 0.317231 0.725253
vt 0.317215 0.733856
vt 0.338973 0.733856
vt 0.338988 0.725253
vt 0.226333 0.725253
vt 0.226317 0.733856
vt 0.389405 0.748947
vt 0.389404 0.757550
vt 0.443042 0.757491
vt 0.443043 0.748888
vt 0.334681 0.748888
vt 0.334680 0.757491
vt 0.253090 0.554667
vt 0.253337 0.500343
vt 0.226300 0.499784
vt 0.298088 0.592175
vt 0.298508 0.499784
vt 0.345405 0.555211
vt 0.345653 0.500521
vt 0.374178 0.500655
vt 0.166161 0.551932
vt 0.192950 0.497052
vt 0.165913 0.497611
vt 0.120742 0.497052
vt 0.121164 0.589439
vt 0.073847 0.552476
vt 0.073597 0.497789
vt 0.045073 0.497923
vt 0.337000 0.869825
vt 0.336998 0.858009
vt 0.280577 0.858107
vt 0.280579 0.869923
vt 0.261196 0.745675
vt 0.261217 0.733859
vt 0.226317 0.745673
vt 0.318601 0.745673
vt 0.318622 0.733857
vt 0.296873 0.733857
vt 0.296852 0.745673
vt 0.334680 0.745675
vt 0.281042 0.745734
vt 0.281041 0.757550
vt 0.357473 0.869923
vt 0.357442 0.858107
vt 0.337000 0.858107
vt 0.337031 0.869923
vt 0.226316 0.858009
vt 0.226318 0.869825
vt 0.226317 0.757491
vt 0.394039 0.763897
vt 0.363238 0.817428
vt 0.360399 0.811081
vt 0.389144 0.757550
vt 0.258924 0.817428
vt 0.226317 0.763897
vt 0.231423 0.757550
vt 0.261667 0.811081
vt 0.336857 0.838012
vt 0.335430 0.831665
vt 0.312179 0.856858
vt 0.312071 0.851944
vt 0.285563 0.837573
vt 0.286880 0.831226
vt 0.361431 0.952324
vt 0.334793 0.972471
vt 0.333476 0.966123
vt 0.358689 0.945977
vt 0.308155 0.993895
vt 0.308264 0.987548
vt 0.283498 0.973645
vt 0.284926 0.967298
vt 0.257117 0.952324
vt 0.259956 0.945977
vt 0.394038 0.898790
vt 0.388932 0.892443
vt 0.226316 0.898790
vt 0.231211 0.892443
vt 0.211150 0.854401
vt 0.137453 0.856858
vt 0.136999 0.795656
vt 0.210692 0.792642
vt 0.066010 0.855639
vt 0.065552 0.793880
vt 0.060687 0.928592
vt 0.134385 0.931518
vt 0.133949 0.993895
vt 0.060248 0.991534
vt 0.205828 0.929799
vt 0.205388 0.992741
vt 0.210468 0.756532
vt 0.136765 0.758637
vt 0.134222 0.726520
vt 0.226317 0.723030
vt 0.065323 0.757281
vt 0.045073 0.723031
vt 0.060910 0.892452
vt 0.134599 0.896439
vt 0.206051 0.893659
vt 0.045073 0.856858
vt 0.137172 0.860277
vt 0.226316 0.856858
vt 0.226316 0.881067
vt 0.300044 0.884181
vt 0.300043 0.892443
vt 0.226316 0.889671
vt 0.371460 0.881067
vt 0.371460 0.889671
vt 0.226319 0.869923
vt 0.297728 0.872969
vt 0.297727 0.881067
vt 0.226316 0.878353
vt 0.371460 0.869923
vt 0.371457 0.878353
vt 0.387139 0.721452
vt 0.315721 0.723030
vt 0.313672 0.705836
vt 0.368375 0.708602
vt 0.241995 0.720928
vt 0.257207 0.708200
vt 0.210596 0.721024
vt 0.136864 0.723030
vt 0.138908 0.701758
vt 0.195369 0.704086
vt 0.065455 0.721533
vt 0.084202 0.704476
vt 0.387262 0.659972
vt 0.368490 0.658959
vt 0.065369 0.659265
vt 0.084130 0.658133
vt 0.387384 0.625013
vt 0.368602 0.625934
vt 0.407532 0.592175
vt 0.384052 0.595827
vt 0.065237 0.624771
vt 0.045073 0.589439
vt 0.068543 0.593125
vt 0.084011 0.625094
vt 0.210377 0.624263
vt 0.210510 0.658756
vt 0.195297 0.657743
vt 0.195177 0.624704
vt 0.226300 0.589439
vt 0.207351 0.592638
vt 0.242241 0.625029
vt 0.226300 0.592175
vt 0.245242 0.595326
vt 0.257433 0.625533
vt 0.242119 0.659448
vt 0.257321 0.658558
vt 0.110576 0.270540
vt 0.110755 0.291598
vt 0.068238 0.290855
vt 0.067449 0.270880
vt 0.026884 0.271289
vt 0.027063 0.292347
vt 0.063696 0.240896
vt 0.065776 0.255479
vt 0.026745 0.256036
vt 0.015056 0.241331
vt 0.065415 0.329859
vt 0.065408 0.345390
vt 0.015978 0.344274
vt 0.027416 0.330199
vt 0.120478 0.343339
vt 0.064617 0.343838
vt 0.111107 0.329450
vt 0.068460 0.314132
vt 0.110980 0.314175
vt 0.027290 0.314924
vt 0.068258 0.293114
vt 0.110436 0.255287
vt 0.119557 0.240396
vn 1.000000 0.000900 0.002500
vn -1.000000 -0.000800 -0.002500
vn 1.000000 -0.000700 0.002600
vn -1.000000 0.000900 -0.002600
vn -0.012600 -0.763500 -0.645700
vn 0.052300 -0.769900 -0.636100
vn -0.051600 -0.751000 0.658300
vn 0.011800 -0.744900 0.667100
vn 0.030500 0.561500 -0.826900
vn -0.017800 0.570600 -0.821000
vn -0.032100 0.596100 0.802300
vn 0.019200 0.605300 0.795800
vn -1.000000 0.000000 -0.003500
vn 1.000000 0.000000 0.003500
vn 0.023400 0.000000 -0.999700
vn -0.024200 0.000000 0.999700
vn -0.021400 0.000000 0.999800
vn 0.000000 0.000000 -1.000000
vn -0.000000 -0.000000 1.000000
vn 0.006000 -1.000000 -0.000000
vn -0.570300 0.821500 -0.000000
vn -0.860100 0.510100 0.000000
vn 0.001500 -1.000000 0.000000
vn -0.001600 -1.000000 0.000000
vn -0.005700 -1.000000 0.000000
vn 0.871700 0.490100 0.000000
vn 0.586800 0.809700 0.000000
vn 0.016100 -0.999900 0.000000
vn 0.001000 -1.000000 -0.000000
vn -0.008600 -1.000000 -0.000000
vn -0.013000 -0.999900 -0.000000
vn 0.514500 -0.079800 0.853700
vn -0.495800 -0.060600 0.866300
vn -0.581200 -0.063000 -0.811300
vn 0.601800 -0.082800 -0.794400
vn 0.836000 0.547900 -0.030900
vn 0.835900 0.547900 0.031900
vn -0.821200 0.569800 -0.031900
vn -0.821200 0.569800 0.032900
vn 0.532200 0.846100 -0.030100
vn 0.540300 0.840300 0.045000
vn 0.581600 0.812700 -0.034200
vn 0.588100 0.807900 0.038800
vn -0.541800 0.839100 -0.049700
vn -0.540700 0.839600 0.051900
vn -0.539400 0.841000 -0.042900
vn -0.554100 0.830600 0.054900
vn -0.727200 -0.686000 0.021200
vn -0.727200 -0.686000 -0.021900
vn 0.741500 -0.670700 -0.021300
vn 0.741500 -0.670700 0.020600
vn -0.875300 -0.483500 -0.008800
vn -0.874000 -0.485900 0.008500
vn 0.787000 -0.616900 0.008000
vn 0.788200 -0.615300 -0.008300
vn -0.829100 -0.545100 -0.124600
vn 0.820700 -0.540500 -0.185400
vn -0.596700 -0.779900 -0.189000
vn -0.503500 -0.847000 -0.170500
vn 0.503800 -0.849800 -0.155300
vn 0.579900 -0.795900 -0.174000
vn 0.575200 -0.789600 0.213700
vn 0.501200 -0.848000 0.172400
vn -0.517700 -0.837600 0.174800
vn -0.586700 -0.780500 0.215700
vn 0.813300 -0.535600 0.227500
vn -0.825700 -0.542800 0.153600
vn 0.816800 -0.576900 -0.005100
vn 0.816900 -0.576800 0.005300
vn 0.525000 -0.850400 0.034600
vn -0.653600 -0.756300 0.030400
vn -0.595800 -0.803100 -0.000000
vn -0.651600 -0.758200 0.022800
vn -0.649000 -0.760400 -0.025400
vn -0.787200 -0.616600 -0.012300
vn -0.787200 -0.616600 0.011900
vn 0.662900 -0.747900 0.034100
vn 0.661300 -0.749500 -0.031000
vn 0.520300 -0.853500 -0.030200
usemtl farm_d
s off
f 1/1/1 4/2/1 3/3/1 2/4/1
f 5/5/2 8/6/2 7/7/2 6/8/2
f 2/4/3 3/3/3 10/9/3 9/10/3
f 11/11/4 12/12/4 8/6/4 5/5/4
f 10/13/5 3/14/5 14/15/5 13/16/5
f 13/16/6 14/15/6 8/17/6 12/18/6
f 3/19/7 4/20/7 15/21/7 14/22/7
f 14/22/8 15/21/8 7/23/8 8/24/8
f 9/25/9 10/13/9 13/16/9 16/26/9
f 16/26/10 13/16/10 12/18/10 11/27/10
f 6/28/11 7/23/11 15/21/11 17/29/11
f 17/29/12 15/21/12 4/20/12 1/30/12
f 18/31/13 21/32/13 20/33/13 19/34/13
f 22/35/14 25/36/14 24/37/14 23/38/14
f 21/32/13 27/39/13 26/40/13 20/33/13
f 25/36/14 29/41/14 28/42/14 24/37/14
f 26/43/15 27/31/15 31/44/15 30/45/15
f 30/45/15 31/44/15 28/46/15 29/47/15
f 18/48/16 19/43/16 33/49/16 32/50/16
f 32/50/17 33/49/17 22/47/17 23/51/17
f 38/52/18 41/53/18 40/54/18 37/55/18
f 37/55/18 40/54/18 39/56/18 36/57/18
f 35/58/18 41/53/18 38/52/18
f 36/57/18 39/56/18 34/59/18
f 43/60/19 42/61/19 48/62/19 49/63/19
f 42/61/19 45/64/19 47/65/19 48/62/19
f 46/66/19 43/60/19 49/63/19
f 45/64/19 44/67/19 47/65/19
f 41/68/20 49/69/20 48/70/20 40/71/20
f 36/72/21 45/73/21 42/74/21 37/75/21
f 34/76/22 44/77/22 45/73/22 36/72/22
f 39/78/23 47/79/23 44/80/23 34/81/23
f 35/82/24 46/83/24 49/69/24 41/68/24
f 40/71/25 48/70/25 47/79/25 39/78/25
f 38/84/26 43/85/26 46/86/26 35/87/26
f 37/88/27 42/89/27 43/85/27 38/84/27
f 54/90/19 55/91/19 51/92/19
f 54/90/19 53/93/19 57/94/19 55/91/19
f 52/95/19 56/96/19 57/94/19 53/93/19
f 56/96/19 52/95/19 50/97/19
f 59/98/18 58/99/18 65/100/18
f 59/98/18 65/100/18 63/101/18 61/102/18
f 60/103/18 61/102/18 63/101/18 62/104/18
f 62/104/18 64/105/18 60/103/18
f 53/106/21 61/107/21 60/108/21 52/109/21
f 57/110/28 63/111/28 65/83/28 55/112/28
f 50/113/29 64/114/29 62/115/29 56/116/29
f 56/116/30 62/115/30 63/111/30 57/110/30
f 51/89/26 58/117/26 59/118/26 54/119/26
f 55/120/31 65/121/31 58/122/31 51/123/31
f 52/109/22 60/108/22 64/124/22 50/125/22
f 54/119/27 59/118/27 61/112/27 53/126/27
f 66/127/19 67/128/19 68/129/19 69/130/19
f 70/131/19 71/132/19 72/133/19 73/134/19
f 67/128/19 74/135/19 75/136/19 68/129/19
f 74/135/32 76/137/32 77/138/32 75/136/32
f 76/137/33 78/139/33 79/140/33 77/138/33
f 78/139/19 70/131/19 73/134/19 79/140/19
f 80/141/18 81/142/18 82/143/18 83/144/18
f 81/142/34 84/145/34 85/146/34 82/143/34
f 84/145/35 86/147/35 87/148/35 85/146/35
f 86/147/18 88/149/18 89/150/18 87/148/18
f 90/151/18 80/141/18 83/144/18 91/152/18
f 88/149/18 92/153/18 93/154/18 89/150/18
f 66/155/36 94/156/36 95/157/36 67/158/36
f 94/156/37 92/159/37 88/160/37 95/157/37
f 70/161/38 96/162/38 97/163/38 71/164/38
f 96/162/39 80/165/39 90/166/39 97/163/39
f 74/167/40 98/168/40 99/169/40 76/170/40
f 98/168/41 86/171/41 84/172/41 99/169/41
f 67/158/42 95/157/42 98/168/42 74/167/42
f 95/157/43 88/160/43 86/171/43 98/168/43
f 78/173/44 100/174/44 96/162/44 70/161/44
f 100/174/45 81/175/45 80/165/45 96/162/45
f 76/176/46 99/177/46 100/174/46 78/173/46
f 99/177/47 84/178/47 81/175/47 100/174/47
f 71/179/48 97/180/48 101/181/48 72/182/48
f 97/180/49 90/183/49 91/184/49 101/181/49
f 92/185/50 94/186/50 102/187/50 93/188/50
f 94/186/51 66/189/51 69/190/51 102/187/51
f 93/191/52 102/192/52 103/193/52 104/194/52
f 102/192/53 69/195/53 105/196/53 103/193/53
f 72/197/54 101/198/54 106/199/54 107/200/54
f 101/198/55 91/201/55 108/202/55 106/199/55
f 89/203/56 93/191/56 104/194/56 109/204/56
f 91/201/57 83/205/57 110/206/57 108/202/57
f 87/207/58 89/203/58 109/204/58 111/208/58
f 85/209/59 87/207/59 111/208/59 112/210/59
f 82/211/60 85/212/60 112/213/60 113/214/60
f 83/205/61 82/211/61 113/214/61 110/206/61
f 79/215/62 73/216/62 114/217/62 115/218/62
f 77/219/63 79/215/63 115/218/63 116/220/63
f 75/221/64 77/222/64 116/223/64 117/224/64
f 68/225/65 75/221/65 117/224/65 118/226/65
f 73/216/66 72/197/66 107/200/66 114/217/66
f 69/195/67 68/225/67 118/226/67 105/196/67
f 114/227/68 107/228/68 106/229/68 119/230/68
f 110/231/69 119/230/69 106/229/69 108/232/69
f 120/233/70 100/234/70 113/235/70 112/236/70
f 121/237/71 99/238/71 112/239/71 111/240/71
f 116/241/72 120/242/72 121/237/72 117/243/72
f 117/243/73 121/237/73 122/244/73 118/245/73
f 111/240/74 109/246/74 122/244/74 121/237/74
f 103/247/75 122/244/75 109/246/75 104/232/75
f 105/228/76 118/245/76 122/244/76 103/247/76
f 113/235/77 100/234/77 119/230/77 110/231/77
f 115/248/78 114/227/78 119/230/78 100/234/78
f 116/249/79 115/248/79 100/234/79 120/233/79
