# Blender v2.75 (sub 0) OBJ File: 'lvl2.blend'
# www.blender.org
mtllib bSide.mtl
o farm_barn_farm_barn_mesh.031_farm_barn_farm_barn_mesh.041
v -0.178449 -1.179517 1.540675
v 0.179328 -1.179517 1.540675
v 0.179328 0.576084 1.540675
v 0.178580 -1.179517 -1.540848
v 0.179328 0.576085 -1.540850
v 0.179328 1.173641 1.540676
v 0.179328 1.173641 -1.540850
v -0.178449 1.184853 1.540676
v -0.178449 1.184853 -1.540849
v -0.178449 -1.179517 -1.540850
v -0.178449 0.574897 1.540676
v -0.178449 0.574897 -1.540850
vt 0.417962 0.340702
vt 0.338319 0.340702
vt 0.338319 0.199053
vt 0.417962 0.199053
vt 0.445070 0.199053
vt 0.445070 0.340702
vt 0.258731 0.340701
vt 0.231061 0.340701
vt 0.231061 0.199053
vt 0.258731 0.199053
vt 0.479818 0.150712
vt 0.463587 0.150711
vt 0.463587 0.009062
vt 0.479818 0.009064
vt 0.407710 0.368685
vt 0.391480 0.368740
vt 0.391480 0.340702
vt 0.407710 0.341217
vt 0.407676 0.449385
vt 0.391480 0.449385
vt 0.423941 0.449385
vt 0.423941 0.340702
vt 0.338353 0.482351
vt 0.354550 0.340702
vt 0.354550 0.482351
vn 1.000000 -0.000200 -0.000100
vn 1.000000 0.000000 0.000000
vn -1.000000 0.000000 0.000000
vn 0.031300 0.999500 0.000000
vn -0.000000 0.000000 -1.000000
vn 0.000000 -0.000000 1.000000
vn 0.000000 -1.000000 -0.000000
usemtl farm_d
s off
f 3/1/1 2/2/1 4/3/1 5/4/1
f 3/1/2 5/4/2 7/5/2 6/6/2
f 11/7/3 8/8/3 9/9/3 12/10/3
f 7/11/4 9/12/4 8/13/4 6/14/4
f 5/15/5 12/16/5 9/17/5 7/18/5
f 4/19/5 10/20/5 12/16/5 5/15/5
f 1/2/3 11/7/3 12/10/3 10/3/3
f 1/21/6 2/19/6 6/18/6 8/22/6
f 4/23/7 2/2/7 1/24/7 10/25/7
