# Blender v2.75 (sub 0) OBJ File: 'LevelTest.blend'
# www.blender.org
mtllib gate2.mtl
o Cube.020_Cube.060
v -0.033590 -0.350917 0.659436
v -0.031769 -0.898333 0.651824
v 0.051375 -0.898333 0.651824
v 0.053196 -0.350917 0.659436
v -0.033590 -0.356812 0.843712
v -0.031769 -0.904178 0.843730
v 0.051375 -0.904178 0.843730
v 0.053196 -0.356812 0.843712
v -0.084486 -1.393818 1.176587
v 0.084486 -1.393818 1.176587
v -0.040384 0.786537 1.084408
v 0.040384 0.786537 1.084408
v -0.084486 -1.393818 0.823412
v 0.084486 -1.393818 0.823412
v -0.040384 0.786537 0.915591
v 0.040384 0.786537 0.915591
v 0.083144 -0.880529 1.173783
v 0.086786 -0.324841 1.181395
v 0.084836 0.230848 1.177319
v -0.084836 0.230848 1.177319
v -0.086786 -0.324841 1.181395
v -0.083144 -0.880529 1.173783
v 0.084836 0.230848 0.822681
v 0.086786 -0.324841 0.818604
v 0.083144 -0.880529 0.826217
v -0.083144 -0.880529 0.826217
v -0.086786 -0.324841 0.818604
v -0.084836 0.230848 0.822681
v -0.033590 -0.350917 0.179436
v -0.031769 -0.898333 0.171824
v 0.051375 -0.898333 0.171824
v 0.053196 -0.350917 0.179436
v -0.033590 -0.356812 0.353712
v -0.031769 -0.904178 0.353730
v 0.051375 -0.904178 0.353730
v 0.053196 -0.356812 0.353712
v -0.087020 -1.397818 0.681885
v 0.087021 -1.397818 0.681885
v -0.041596 1.211106 0.586941
v 0.041595 1.211106 0.586941
v -0.087020 -1.397818 0.318115
v 0.087020 -1.397818 0.318115
v -0.041596 1.211106 0.413059
v 0.041595 1.211106 0.413059
v 0.085638 -0.849387 0.678997
v 0.089390 -0.162556 0.686837
v 0.087381 0.524275 0.682639
v -0.087381 0.524275 0.682639
v -0.089390 -0.162556 0.686837
v -0.085638 -0.849387 0.678997
v 0.087381 0.524275 0.317361
v 0.089390 -0.162556 0.313163
v 0.085638 -0.849387 0.321003
v -0.085638 -0.849387 0.321003
v -0.089390 -0.162556 0.313163
v -0.087381 0.524275 0.317361
v -0.033590 -0.350917 -0.320565
v -0.031769 -0.898333 -0.328177
v 0.051375 -0.898333 -0.328177
v 0.053196 -0.350917 -0.320565
v -0.033590 -0.356812 -0.136288
v -0.031769 -0.904178 -0.136270
v 0.051375 -0.904178 -0.136270
v 0.053196 -0.356812 -0.136288
v -0.084486 -1.397818 0.176588
v 0.084486 -1.397818 0.176588
v -0.040384 1.397818 0.084408
v 0.040384 1.397818 0.084408
v -0.084486 -1.397818 -0.176588
v 0.084486 -1.397818 -0.176588
v -0.040384 1.397818 -0.084408
v 0.040384 1.397818 -0.084408
v 0.083144 -0.802709 0.173783
v 0.086786 -0.069200 0.181395
v 0.084836 0.664309 0.177319
v -0.084836 0.664309 0.177319
v -0.086786 -0.069200 0.181395
v -0.083144 -0.802709 0.173783
v 0.084836 0.664309 -0.177319
v 0.086786 -0.069200 -0.181395
v 0.083144 -0.802709 -0.173783
v -0.083144 -0.802709 -0.173783
v -0.086786 -0.069200 -0.181395
v -0.084836 0.664309 -0.177319
v -0.084486 -1.397818 -0.323413
v 0.084486 -1.397818 -0.323413
v -0.040384 1.237780 -0.415592
v 0.040384 1.237780 -0.415592
v -0.084486 -1.397818 -0.676588
v 0.084486 -1.397818 -0.676588
v -0.040384 1.237780 -0.584409
v 0.040384 1.237780 -0.584409
v 0.083144 -0.842718 -0.326217
v 0.086786 -0.149219 -0.318605
v 0.084836 0.544280 -0.322681
v -0.084836 0.544280 -0.322681
v -0.086786 -0.149219 -0.318605
v -0.083144 -0.842718 -0.326217
v 0.084836 0.544280 -0.677319
v 0.086786 -0.149219 -0.681395
v 0.083144 -0.842718 -0.673783
v -0.083144 -0.842718 -0.673783
v -0.086786 -0.149219 -0.681395
v -0.084836 0.544280 -0.677319
v -0.033590 -0.350917 -0.840565
v -0.031770 -0.898333 -0.848177
v 0.051375 -0.898333 -0.848177
v 0.053195 -0.350917 -0.840565
v -0.033590 -0.356812 -0.656288
v -0.031770 -0.904178 -0.656270
v 0.051375 -0.904178 -0.656270
v 0.053195 -0.356812 -0.656288
v -0.084486 -1.393818 -0.823413
v 0.084486 -1.393818 -0.823413
v -0.040384 0.786537 -0.915591
v 0.040384 0.786537 -0.915591
v -0.084486 -1.393818 -1.176588
v 0.084486 -1.393818 -1.176588
v -0.040384 0.786537 -1.084408
v 0.040384 0.786537 -1.084408
v 0.083144 -0.880529 -0.826217
v 0.086786 -0.324841 -0.818605
v 0.084836 0.230848 -0.822681
v -0.084836 0.230848 -0.822681
v -0.086786 -0.324841 -0.818605
v -0.083144 -0.880529 -0.826217
v 0.084836 0.230848 -1.177319
v 0.086786 -0.324841 -1.181395
v 0.083144 -0.880529 -1.173783
v -0.083144 -0.880529 -1.173783
v -0.086786 -0.324841 -1.181395
v -0.084836 0.230848 -1.177319
vt 0.439157 0.214562
vt 0.357004 0.214562
vt 0.357004 0.000402
vt 0.432974 0.433412
vt 0.432974 0.219252
vt 0.487061 0.214562
vt 0.276494 0.124999
vt 0.357004 0.125683
vt 0.357004 0.188677
vt 0.276494 0.376740
vt 0.274853 0.313739
vt 0.357004 0.313061
vt 0.196075 0.476657
vt 0.115563 0.476657
vt 0.115563 0.253117
vt 0.439157 0.000402
vt 0.487061 0.438102
vt 0.274853 0.188000
vt 0.357004 0.376056
vt 0.196075 0.253117
vt 0.057021 0.000402
vt 0.146848 0.000402
vt 0.196286 0.065088
vt 0.357004 0.536197
vt 0.357004 0.432177
vt 0.393317 0.432177
vt 0.541210 0.214562
vt 0.541210 0.432177
vt 0.487061 0.430449
vt 0.432974 0.214562
vt 0.432974 0.432177
vt 0.219317 0.000402
vt 0.255631 0.000405
vt 0.275620 0.062145
vt 0.255631 0.501334
vt 0.219317 0.501337
vt 0.199335 0.439599
vt 0.200088 0.313745
vt 0.199482 0.250875
vt 0.198455 0.376745
vt 0.275620 0.439593
vt 0.200088 0.187994
vt 0.275453 0.250869
vt 0.198455 0.124993
vt 0.199335 0.062140
vt 0.059589 0.474146
vt 0.059589 0.255629
vt 0.115563 0.312877
vt 0.005415 0.476657
vt 0.005415 0.253117
vt 0.009465 0.190375
vt 0.194404 0.190375
vt 0.195897 0.253117
vt 0.005415 0.127858
vt 0.198455 0.127858
vt 0.007584 0.065088
vt 0.393317 0.536197
vt 0.487061 0.216290
vt 0.115563 0.416897
vt 0.007973 0.253117
vn 0.000000 -0.999500 -0.030400
vn 0.000000 0.000000 1.000000
vn 1.000000 -0.003300 -0.000100
vn -1.000000 -0.003300 -0.000100
vn 0.000000 0.999500 0.032000
vn 0.000000 0.164900 0.986300
vn 0.000000 1.000000 -0.000000
vn -0.000000 0.005500 -1.000000
vn 0.000000 -1.000000 -0.000000
vn -0.996800 0.079700 0.000000
vn 0.996800 0.079700 -0.000000
vn 1.000000 0.002600 -0.000000
vn 1.000000 -0.006600 -0.000000
vn 1.000000 0.003500 -0.000000
vn -1.000000 0.002600 0.000000
vn -1.000000 -0.006600 0.000000
vn -1.000000 0.003500 0.000000
vn 0.000000 0.164900 -0.986300
vn 0.000000 0.007300 -1.000000
vn 0.000000 0.005500 1.000000
vn 0.000000 -0.013700 0.999900
vn 0.000000 0.007300 1.000000
vn 0.000000 -0.013700 -0.999900
vn 0.000000 -0.999500 -0.032100
vn 0.000000 0.999400 0.033800
vn 0.000000 0.138000 0.990400
vn 0.000000 0.005300 -1.000000
vn -0.997800 0.066500 0.000000
vn 0.997800 0.066500 -0.000000
vn 1.000000 0.002500 -0.000000
vn 1.000000 -0.005500 -0.000000
vn 1.000000 0.002900 -0.000000
vn -1.000000 0.002500 0.000000
vn -1.000000 -0.005500 0.000000
vn -1.000000 0.002900 0.000000
vn 0.000000 0.138000 -0.990400
vn 0.000000 0.006100 -1.000000
vn 0.000000 0.005300 1.000000
vn 0.000000 -0.011400 0.999900
vn 0.000000 0.006100 1.000000
vn 0.000000 -0.011400 -0.999900
vn 0.000000 0.125700 0.992100
vn -0.000000 0.004700 -1.000000
vn -0.998200 0.060500 0.000000
vn 0.998200 0.060500 -0.000000
vn 1.000000 0.002300 -0.000000
vn 1.000000 -0.005000 -0.000000
vn 1.000000 0.002700 -0.000000
vn -1.000000 0.002300 0.000000
vn -1.000000 -0.005000 0.000000
vn -1.000000 0.002700 0.000000
vn -0.000000 0.125700 -0.992100
vn 0.000000 0.005600 -1.000000
vn 0.000000 0.004700 1.000000
vn 0.000000 -0.010400 0.999900
vn 0.000000 0.005600 1.000000
vn 0.000000 -0.010400 -0.999900
vn 0.000000 0.132800 0.991100
vn 0.000000 0.005100 -1.000000
vn -0.998000 0.064000 0.000000
vn 0.998000 0.064000 -0.000000
vn 1.000000 0.002400 -0.000000
vn 1.000000 -0.005300 -0.000000
vn 1.000000 0.002800 -0.000000
vn -1.000000 0.002400 0.000000
vn -1.000000 -0.005300 0.000000
vn -1.000000 0.002800 0.000000
vn 0.000000 0.132800 -0.991100
vn 0.000000 0.005900 -1.000000
vn 0.000000 0.005100 1.000000
vn 0.000000 -0.011000 0.999900
vn 0.000000 0.005900 1.000000
vn -0.000000 -0.011000 -0.999900
usemtl Material.002
s off
f 3/1/1 7/2/1 6/3/1
f 6/4/2 7/5/2 8/6/2
f 4/7/3 8/8/3 7/9/3
f 1/10/4 2/11/4 6/12/4
f 1/13/5 5/14/5 8/15/5
f 2/16/1 3/1/1 6/3/1
f 5/17/2 6/4/2 8/6/2
f 3/18/3 4/7/3 7/9/3
f 5/19/4 1/10/4 6/12/4
f 4/20/5 1/13/5 8/15/5
f 12/21/6 11/22/6 20/23/6
f 16/24/7 15/25/7 11/26/7
f 14/27/8 13/28/8 26/29/8
f 10/30/9 9/31/9 13/25/9
f 11/32/10 15/33/10 28/34/10
f 16/35/11 12/36/11 19/37/11
f 25/11/12 17/38/12 10/39/12
f 24/10/13 18/40/13 17/38/13
f 23/41/14 19/37/14 18/40/14
f 22/42/15 26/18/15 13/43/15
f 21/44/16 27/7/16 26/18/16
f 20/45/17 28/34/17 27/7/17
f 23/46/18 28/47/18 15/48/18
f 24/49/19 27/50/19 28/47/19
f 17/51/20 22/52/20 9/53/20
f 18/54/21 21/55/21 22/52/21
f 19/56/22 20/23/22 21/55/22
f 19/56/6 12/21/6 20/23/6
f 12/57/7 16/24/7 11/26/7
f 25/58/8 14/27/8 26/29/8
f 14/2/9 10/30/9 13/25/9
f 20/45/10 11/32/10 28/34/10
f 23/41/11 16/35/11 19/37/11
f 14/43/12 25/11/12 10/39/12
f 25/11/13 24/10/13 17/38/13
f 24/10/14 23/41/14 18/40/14
f 9/39/15 22/42/15 13/43/15
f 22/42/16 21/44/16 26/18/16
f 21/44/17 20/45/17 27/7/17
f 16/59/18 23/46/18 15/48/18
f 23/46/19 24/49/19 28/47/19
f 10/60/20 17/51/20 9/53/20
f 17/51/21 18/54/21 22/52/21
f 18/54/22 19/56/22 21/55/22
f 24/17/23 25/4/23 27/6/23
f 25/4/23 26/5/23 27/6/23
f 31/1/24 35/2/24 34/3/24
f 34/4/2 35/5/2 36/6/2
f 32/7/3 36/8/3 35/9/3
f 29/10/4 30/11/4 34/12/4
f 29/13/25 33/14/25 36/15/25
f 30/16/24 31/1/24 34/3/24
f 33/17/2 34/4/2 36/6/2
f 31/18/3 32/7/3 35/9/3
f 33/19/4 29/10/4 34/12/4
f 32/20/25 29/13/25 36/15/25
f 40/21/26 39/22/26 48/23/26
f 44/24/7 43/25/7 39/26/7
f 42/27/27 41/28/27 54/29/27
f 38/30/9 37/31/9 41/25/9
f 39/32/28 43/33/28 56/34/28
f 44/35/29 40/36/29 47/37/29
f 53/11/30 45/38/30 38/39/30
f 52/10/31 46/40/31 45/38/31
f 51/41/32 47/37/32 46/40/32
f 50/42/33 54/18/33 41/43/33
f 49/44/34 55/7/34 54/18/34
f 48/45/35 56/34/35 55/7/35
f 51/46/36 56/47/36 43/48/36
f 52/49/37 55/50/37 56/47/37
f 45/51/38 50/52/38 37/53/38
f 46/54/39 49/55/39 50/52/39
f 47/56/40 48/23/40 49/55/40
f 47/56/26 40/21/26 48/23/26
f 40/57/7 44/24/7 39/26/7
f 53/58/27 42/27/27 54/29/27
f 42/2/9 38/30/9 41/25/9
f 48/45/28 39/32/28 56/34/28
f 51/41/29 44/35/29 47/37/29
f 42/43/30 53/11/30 38/39/30
f 53/11/31 52/10/31 45/38/31
f 52/10/32 51/41/32 46/40/32
f 37/39/33 50/42/33 41/43/33
f 50/42/34 49/44/34 54/18/34
f 49/44/35 48/45/35 55/7/35
f 44/59/36 51/46/36 43/48/36
f 51/46/37 52/49/37 56/47/37
f 38/60/38 45/51/38 37/53/38
f 45/51/39 46/54/39 50/52/39
f 46/54/40 47/56/40 49/55/40
f 52/17/41 53/4/41 55/6/41
f 53/4/41 54/5/41 55/6/41
f 59/1/1 63/2/1 62/3/1
f 62/4/2 63/5/2 64/6/2
f 60/7/3 64/8/3 63/9/3
f 57/10/4 58/11/4 62/12/4
f 57/13/5 61/14/5 64/15/5
f 58/16/1 59/1/1 62/3/1
f 61/17/2 62/4/2 64/6/2
f 59/18/3 60/7/3 63/9/3
f 61/19/4 57/10/4 62/12/4
f 60/20/5 57/13/5 64/15/5
f 68/21/42 67/22/42 76/23/42
f 72/24/7 71/25/7 67/26/7
f 70/27/43 69/28/43 82/29/43
f 66/30/9 65/31/9 69/25/9
f 67/32/44 71/33/44 84/34/44
f 72/35/45 68/36/45 75/37/45
f 81/11/46 73/38/46 66/39/46
f 80/10/47 74/40/47 73/38/47
f 79/41/48 75/37/48 74/40/48
f 78/42/49 82/18/49 69/43/49
f 77/44/50 83/7/50 82/18/50
f 76/45/51 84/34/51 83/7/51
f 79/46/52 84/47/52 71/48/52
f 80/49/53 83/50/53 84/47/53
f 73/51/54 78/52/54 65/53/54
f 74/54/55 77/55/55 78/52/55
f 75/56/56 76/23/56 77/55/56
f 75/56/42 68/21/42 76/23/42
f 68/57/7 72/24/7 67/26/7
f 81/58/43 70/27/43 82/29/43
f 70/2/9 66/30/9 69/25/9
f 76/45/44 67/32/44 84/34/44
f 79/41/45 72/35/45 75/37/45
f 70/43/46 81/11/46 66/39/46
f 81/11/47 80/10/47 73/38/47
f 80/10/48 79/41/48 74/40/48
f 65/39/49 78/42/49 69/43/49
f 78/42/50 77/44/50 82/18/50
f 77/44/51 76/45/51 83/7/51
f 72/59/52 79/46/52 71/48/52
f 79/46/53 80/49/53 84/47/53
f 66/60/54 73/51/54 65/53/54
f 73/51/55 74/54/55 78/52/55
f 74/54/56 75/56/56 77/55/56
f 80/17/57 81/4/57 83/6/57
f 81/4/57 82/5/57 83/6/57
f 88/21/58 87/22/58 96/23/58
f 92/24/7 91/25/7 87/26/7
f 90/27/59 89/28/59 102/29/59
f 86/30/9 85/31/9 89/25/9
f 87/32/60 91/33/60 104/34/60
f 92/35/61 88/36/61 95/37/61
f 101/11/62 93/38/62 86/39/62
f 100/10/63 94/40/63 93/38/63
f 99/41/64 95/37/64 94/40/64
f 98/42/65 102/18/65 89/43/65
f 97/44/66 103/7/66 102/18/66
f 96/45/67 104/34/67 103/7/67
f 99/46/68 104/47/68 91/48/68
f 100/49/69 103/50/69 104/47/69
f 93/51/70 98/52/70 85/53/70
f 94/54/71 97/55/71 98/52/71
f 95/56/72 96/23/72 97/55/72
f 95/56/58 88/21/58 96/23/58
f 88/57/7 92/24/7 87/26/7
f 101/58/59 90/27/59 102/29/59
f 90/2/9 86/30/9 89/25/9
f 96/45/60 87/32/60 104/34/60
f 99/41/61 92/35/61 95/37/61
f 90/43/62 101/11/62 86/39/62
f 101/11/63 100/10/63 93/38/63
f 100/10/64 99/41/64 94/40/64
f 85/39/65 98/42/65 89/43/65
f 98/42/66 97/44/66 102/18/66
f 97/44/67 96/45/67 103/7/67
f 92/59/68 99/46/68 91/48/68
f 99/46/69 100/49/69 104/47/69
f 86/60/70 93/51/70 85/53/70
f 93/51/71 94/54/71 98/52/71
f 94/54/72 95/56/72 97/55/72
f 100/17/73 101/4/73 103/6/73
f 101/4/73 102/5/73 103/6/73
f 107/1/1 111/2/1 110/3/1
f 110/4/2 111/5/2 112/6/2
f 108/7/3 112/8/3 111/9/3
f 105/10/4 106/11/4 110/12/4
f 105/13/5 109/14/5 112/15/5
f 106/16/1 107/1/1 110/3/1
f 109/17/2 110/4/2 112/6/2
f 107/18/3 108/7/3 111/9/3
f 109/19/4 105/10/4 110/12/4
f 108/20/5 105/13/5 112/15/5
f 116/21/6 115/22/6 124/23/6
f 120/24/7 119/25/7 115/26/7
f 118/27/8 117/28/8 130/29/8
f 114/30/9 113/31/9 117/25/9
f 115/32/10 119/33/10 132/34/10
f 120/35/11 116/36/11 123/37/11
f 129/11/12 121/38/12 114/39/12
f 128/10/13 122/40/13 121/38/13
f 127/41/14 123/37/14 122/40/14
f 126/42/15 130/18/15 117/43/15
f 125/44/16 131/7/16 130/18/16
f 124/45/17 132/34/17 131/7/17
f 127/46/18 132/47/18 119/48/18
f 128/49/19 131/50/19 132/47/19
f 121/51/20 126/52/20 113/53/20
f 122/54/21 125/55/21 126/52/21
f 123/56/22 124/23/22 125/55/22
f 123/56/6 116/21/6 124/23/6
f 116/57/7 120/24/7 115/26/7
f 129/58/8 118/27/8 130/29/8
f 118/2/9 114/30/9 117/25/9
f 124/45/10 115/32/10 132/34/10
f 127/41/11 120/35/11 123/37/11
f 118/43/12 129/11/12 114/39/12
f 129/11/13 128/10/13 121/38/13
f 128/10/14 127/41/14 122/40/14
f 113/39/15 126/42/15 117/43/15
f 126/42/16 125/44/16 130/18/16
f 125/44/17 124/45/17 131/7/17
f 120/59/18 127/46/18 119/48/18
f 127/46/19 128/49/19 132/47/19
f 114/60/20 121/51/20 113/53/20
f 121/51/21 122/54/21 126/52/21
f 122/54/22 123/56/22 125/55/22
f 128/17/23 129/4/23 131/6/23
f 129/4/23 130/5/23 131/6/23
