# Blender v2.75 (sub 0) OBJ File: 'LevelTest.blend'
# www.blender.org
mtllib Ground.mtl
o ground.003_Cube.004
v -0.000000 -0.210699 0.000003
v -3.276760 -0.210699 0.000002
v -6.553520 -0.210699 0.000001
v -9.830281 -0.210699 -0.000000
v 0.000001 -0.210699 -3.276757
v 0.000002 -0.210699 -6.553518
v 0.000003 -0.210699 -9.830279
v 3.276760 -0.210699 0.000004
v 6.553521 -0.210699 0.000005
v 9.830280 -0.210699 0.000006
v -0.000001 -0.210699 3.276763
v -0.000002 -0.210699 6.553523
v -0.000003 -0.210699 9.830284
v -3.276761 -0.210699 3.276762
v -6.553520 -0.210699 3.276762
v -9.830281 -0.210699 3.276760
v -3.276762 -0.210699 6.553523
v -6.553523 -0.210699 6.553521
v -9.830282 -0.210699 6.553520
v -3.276763 -0.210699 9.830282
v -6.553523 -0.210699 9.830281
v -9.830283 -0.210699 9.830278
v -3.276760 -0.210699 -3.276758
v -3.276759 -0.210699 -6.553519
v -3.276758 -0.210699 -9.830279
v -6.553519 -0.210699 -3.276759
v -6.553519 -0.210699 -6.553520
v -6.553518 -0.210699 -9.830280
v -9.830280 -0.210699 -3.276760
v -9.830280 -0.210699 -6.553520
v -9.830279 -0.210699 -9.830281
v 3.276761 -0.210699 -3.276757
v 6.553521 -0.210699 -3.276756
v 9.830281 -0.210699 -3.276755
v 3.276762 -0.210699 -6.553518
v 6.553522 -0.210699 -6.553517
v 9.830282 -0.210699 -6.553516
v 3.276763 -0.210699 -9.830278
v 6.553524 -0.210699 -9.830278
v 9.830283 -0.210699 -9.830277
v 3.276759 -0.210699 3.276765
v 3.276758 -0.210699 6.553525
v 3.276757 -0.210699 9.830285
v 6.553520 -0.210699 3.276765
v 6.553518 -0.210699 6.553526
v 6.553517 -0.210699 9.830287
v 9.830279 -0.210699 3.276767
v 9.830277 -0.210699 6.553526
v 9.830276 -0.210699 9.830288
v -13.107043 -0.210699 9.830278
v -13.107042 -0.210699 6.553519
v -13.107041 -0.210699 3.276760
v -13.107041 -0.210699 -0.000001
v -13.107040 -0.210699 -3.276762
v -13.107040 -0.210699 -6.553521
v -13.107039 -0.210699 -9.830281
v -9.830283 -0.210699 13.107040
v -6.553524 -0.210699 13.107041
v -3.276764 -0.210699 13.107042
v -0.000004 -0.210699 13.107044
v 3.276756 -0.210699 13.107047
v 6.553515 -0.210699 13.107047
v 9.830276 -0.210699 13.107048
v -9.830279 -0.210699 -13.107043
v -6.553518 -0.210699 -13.107040
v -3.276757 -0.210699 -13.107039
v 0.000003 -0.210699 -13.107039
v 3.276764 -0.210699 -13.107038
v 6.553524 -0.210699 -13.107038
v 9.830285 -0.210699 -13.107038
v 13.107044 -0.210699 -9.830277
v 13.107043 -0.210699 -6.553516
v 13.107041 -0.210699 -3.276754
v 13.107040 -0.210699 0.000007
v 13.107039 -0.210699 3.276767
v 13.107038 -0.210699 6.553529
v 13.107037 -0.210699 9.830288
v -13.107043 -0.210699 13.107038
v -13.107039 -0.210699 -13.107043
v 13.107046 -0.210699 -13.107038
v 13.107036 -0.210699 13.107049
v -3.276764 -0.210699 12.141568
v -6.553524 -0.210699 12.141567
v -9.830283 -0.210699 12.141565
v -0.000004 -0.210699 12.141570
v 3.276756 -0.210699 12.141572
v 6.553516 -0.210699 12.141573
v 9.830276 -0.210699 12.141574
v -13.107043 -0.210699 12.141564
v 13.107037 -0.210699 12.141575
v -12.302480 -0.210699 -0.000001
v -12.302480 -0.210699 3.276760
v -12.302481 -0.210699 6.553519
v -12.302482 -0.210699 9.830278
v -12.302479 -0.210699 -3.276761
v -12.302479 -0.210699 -6.553521
v -12.302478 -0.210699 -9.830281
v -12.302482 -0.210699 13.107038
v -12.302478 -0.210699 -13.107043
v -12.302482 -0.210699 12.141564
v 0.000002 0.210699 -0.000001
v 0.000000 0.210699 3.276760
v -0.000001 0.210699 6.553520
v -0.000003 0.210699 9.830279
v 3.276762 0.210699 0.000001
v 6.553523 0.210699 0.000002
v 9.830284 0.210699 0.000004
v 0.000004 0.210699 -3.276761
v 0.000005 0.210699 -6.553521
v 0.000007 0.210699 -9.830282
v -3.276759 0.210699 -0.000003
v -6.553520 0.210699 -0.000005
v -9.830280 0.210699 -0.000006
v -3.276761 0.210699 3.276758
v -3.276762 0.210699 6.553518
v -3.276765 0.210699 9.830277
v -6.553521 0.210699 3.276756
v -6.553523 0.210699 6.553517
v -6.553525 0.210699 9.830276
v -9.830282 0.210699 3.276755
v -9.830285 0.210699 6.553515
v 3.276761 0.210699 3.276760
v 6.553522 0.210699 3.276763
v 9.830283 0.210699 3.276764
v 3.276759 0.210699 6.553522
v 6.553520 0.210699 6.553523
v 9.830281 0.210699 6.553524
v 3.276758 0.210699 9.830282
v 6.553519 0.210699 9.830282
v 9.830279 0.210699 9.830285
v 3.276763 0.210699 -3.276759
v 3.276765 0.210699 -6.553519
v 3.276767 0.210699 -9.830279
v 6.553524 0.210699 -3.276758
v 6.553526 0.210699 -6.553518
v 6.553528 0.210699 -9.830279
v 9.830285 0.210699 -3.276756
v 9.830286 0.210699 -6.553516
v 9.830289 0.210699 -9.830276
v -3.276757 0.210699 -3.276763
v -6.553516 0.210699 -3.276765
v -9.830277 0.210699 -3.276767
v -3.276755 0.210699 -6.553524
v -6.553515 0.210699 -6.553525
v -9.830276 0.210699 -6.553528
v -3.276753 0.210699 -9.830284
v -6.553514 0.210699 -9.830287
v -9.830273 0.210699 -9.830290
v -13.107044 -0.210699 9.830279
v -13.107043 -0.210699 6.553520
v -13.107042 -0.210699 3.276760
v -13.107042 -0.210699 -0.000001
v -13.107041 -0.210699 -3.276762
v -13.107041 -0.210699 -6.553522
v -13.107040 -0.210699 -9.830282
v -9.830284 -0.210699 13.107041
v -6.553524 -0.210699 13.107042
v -3.276764 -0.210699 13.107043
v -0.000004 -0.210699 13.107045
v 3.276756 -0.210699 13.107048
v 6.553516 -0.210699 13.107048
v 9.830276 -0.210699 13.107049
v -9.830280 -0.210699 -13.107044
v -6.553518 -0.210699 -13.107041
v -3.276758 -0.210699 -13.107040
v 0.000003 -0.210699 -13.107040
v 3.276764 -0.210699 -13.107039
v 6.553525 -0.210699 -13.107039
v 9.830286 -0.210699 -13.107038
v 13.107045 -0.210699 -9.830278
v 13.107044 -0.210699 -6.553516
v 13.107042 -0.210699 -3.276754
v 13.107041 -0.210699 0.000007
v 13.107040 -0.210699 3.276767
v 13.107039 -0.210699 6.553529
v 13.107038 -0.210699 9.830289
v -13.107049 0.210699 9.830274
v -13.107045 0.210699 6.553514
v -13.107042 0.210699 3.276753
v -13.107040 0.210699 -0.000008
v -13.107039 0.210699 -3.276769
v -13.107038 0.210699 -6.553530
v -13.107035 0.210699 -9.830292
v -9.830288 0.210699 13.107036
v -6.553528 0.210699 13.107038
v -3.276766 0.210699 13.107039
v -0.000005 0.210699 13.107041
v 3.276756 0.210699 13.107042
v 6.553518 0.210699 13.107042
v 9.830279 0.210699 13.107045
v -9.830273 0.210699 -13.107049
v -6.553511 0.210699 -13.107047
v -3.276751 0.210699 -13.107044
v 0.000009 0.210699 -13.107044
v 3.276769 0.210699 -13.107041
v 6.553529 0.210699 -13.107038
v 9.830289 0.210699 -13.107037
v 13.107048 0.210699 -9.830275
v 13.107047 0.210699 -6.553514
v 13.107047 0.210699 -3.276754
v 13.107045 0.210699 0.000006
v 13.107043 0.210699 3.276766
v 13.107042 0.210699 6.553525
v 13.107041 0.210699 9.830285
v -13.107044 -0.210699 13.107039
v -13.107040 -0.210699 -13.107044
v 13.107047 -0.210699 -13.107038
v 13.107037 -0.210699 13.107050
v -13.107049 0.210699 13.107034
v -13.107031 0.210699 -13.107051
v 13.107050 0.210699 -13.107035
v 13.107040 0.210699 13.107045
v -0.000004 0.210699 12.141566
v -3.276766 0.210699 12.141565
v -6.553527 0.210699 12.141564
v -9.830288 0.210699 12.141562
v 3.276757 0.210699 12.141568
v 6.553519 0.210699 12.141568
v 9.830279 0.210699 12.141571
v -13.107044 -0.210699 12.141565
v 13.107038 -0.210699 12.141576
v -13.107049 0.210699 12.141561
v 13.107041 0.210699 12.141571
v -12.302481 0.210699 3.276753
v -12.302484 0.210699 6.553514
v -12.302487 0.210699 9.830274
v -12.302479 0.210699 -0.000008
v -12.302477 0.210699 -3.276769
v -12.302475 0.210699 -6.553530
v -12.302472 0.210699 -9.830292
v -12.302483 -0.210699 13.107039
v -12.302479 -0.210699 -13.107044
v -12.302487 0.210699 13.107034
v -12.302469 0.210699 -13.107051
v -12.302487 0.210699 12.141561
v -6.553523 0.141060 6.553517
v -6.553525 0.141060 9.830276
v -9.830285 0.141060 6.553515
v -9.830288 0.141060 9.830276
v -6.553527 0.141060 12.141564
v -9.830288 0.141060 12.141562
v -12.302484 0.141060 6.553514
v -12.302487 0.141060 9.830274
v -12.302487 0.141060 12.141561
vt 0.186166 0.817502
vt 0.225683 0.817502
vt 0.225683 0.857018
vt 0.186166 0.857018
vt 0.225683 0.896535
vt 0.186166 0.896535
vt 0.225683 0.936051
vt 0.186166 0.936051
vt 0.186166 0.955809
vt 0.225683 0.955809
vt 0.225683 0.975567
vt 0.186166 0.975567
vt 0.265199 0.817502
vt 0.265199 0.857018
vt 0.265199 0.896535
vt 0.265199 0.936051
vt 0.265199 0.955809
vt 0.265199 0.975567
vt 0.304715 0.817502
vt 0.304715 0.857018
vt 0.304715 0.896535
vt 0.304715 0.936051
vt 0.304716 0.955809
vt 0.304716 0.975567
vt 0.324474 0.817502
vt 0.344232 0.817502
vt 0.344232 0.857018
vt 0.324474 0.857018
vt 0.344232 0.896535
vt 0.324474 0.896535
vt 0.344232 0.936051
vt 0.324474 0.936051
vt 0.324474 0.955809
vt 0.344232 0.955809
vt 0.344232 0.975567
vt 0.324474 0.975567
vt 0.146650 0.857018
vt 0.146650 0.817502
vt 0.107133 0.857018
vt 0.107133 0.817502
vt 0.067617 0.857018
vt 0.067617 0.817502
vt 0.028101 0.857018
vt 0.028101 0.817502
vt 0.146650 0.896535
vt 0.107133 0.896535
vt 0.067617 0.896535
vt 0.028101 0.896535
vt 0.146650 0.936051
vt 0.107133 0.936051
vt 0.067617 0.936051
vt 0.028101 0.936051
vt 0.146650 0.975567
vt 0.146650 0.955809
vt 0.107133 0.975567
vt 0.107133 0.955809
vt 0.067617 0.975567
vt 0.067617 0.955809
vt 0.028101 0.975567
vt 0.028101 0.955809
vt 0.146650 0.777985
vt 0.186166 0.777985
vt 0.146650 0.738469
vt 0.186166 0.738469
vt 0.146650 0.698953
vt 0.186166 0.698953
vt 0.146650 0.659436
vt 0.186166 0.659436
vt 0.107133 0.777985
vt 0.107133 0.738469
vt 0.107133 0.698953
vt 0.107133 0.659436
vt 0.067617 0.777985
vt 0.067617 0.738469
vt 0.067617 0.698953
vt 0.067617 0.659436
vt 0.028101 0.777986
vt 0.028101 0.738469
vt 0.028101 0.698953
vt 0.028101 0.659436
vt 0.225683 0.777985
vt 0.265199 0.777985
vt 0.304715 0.777985
vt 0.324474 0.777985
vt 0.344232 0.777985
vt 0.225683 0.738469
vt 0.265199 0.738469
vt 0.304715 0.738469
vt 0.324474 0.738469
vt 0.344232 0.738469
vt 0.225683 0.698953
vt 0.265199 0.698953
vt 0.304715 0.698953
vt 0.324474 0.698953
vt 0.344232 0.698953
vt 0.225683 0.659436
vt 0.265199 0.659436
vt 0.304715 0.659436
vt 0.324474 0.659436
vt 0.344232 0.659436
vt 0.218620 0.466974
vt 0.178712 0.466794
vt 0.178949 0.426960
vt 0.218691 0.427027
vt 0.179083 0.387374
vt 0.218604 0.387287
vt 0.178938 0.348050
vt 0.218382 0.347696
vt 0.218210 0.327795
vt 0.178564 0.328357
vt 0.178190 0.308664
vt 0.218037 0.307894
vt 0.138867 0.466488
vt 0.139323 0.426654
vt 0.139878 0.387205
vt 0.140150 0.348446
vt 0.139667 0.329327
vt 0.139184 0.310208
vt 0.098873 0.466117
vt 0.099586 0.425975
vt 0.100991 0.386367
vt 0.081318 0.385192
vt 0.102729 0.330652
vt 0.102719 0.312995
vt 0.078543 0.465965
vt 0.058213 0.465813
vt 0.059052 0.424768
vt 0.079319 0.425372
vt 0.061644 0.384017
vt 0.067640 0.345871
vt 0.085189 0.347090
vt 0.086692 0.331334
vt 0.070656 0.332016
vt 0.073672 0.318161
vt 0.088196 0.315578
vt 0.258586 0.426899
vt 0.258709 0.467051
vt 0.298672 0.426498
vt 0.299050 0.466996
vt 0.339211 0.425630
vt 0.339975 0.466829
vt 0.380918 0.424012
vt 0.382169 0.466575
vt 0.258257 0.387028
vt 0.297855 0.386477
vt 0.337385 0.385160
vt 0.377612 0.382110
vt 0.257944 0.347455
vt 0.297067 0.347240
vt 0.334991 0.346459
vt 0.370699 0.343241
vt 0.258008 0.307836
vt 0.257976 0.327646
vt 0.297329 0.308544
vt 0.297198 0.327892
vt 0.334290 0.310631
vt 0.334640 0.328545
vt 0.363909 0.315155
vt 0.367304 0.329198
vt 0.258602 0.507335
vt 0.218431 0.507080
vt 0.258326 0.547600
vt 0.218102 0.547257
vt 0.258158 0.587861
vt 0.217700 0.587673
vt 0.258575 0.628472
vt 0.217366 0.628814
vt 0.298928 0.507598
vt 0.298405 0.547946
vt 0.298000 0.587730
vt 0.298813 0.627127
vt 0.339670 0.508107
vt 0.338337 0.548842
vt 0.336489 0.588007
vt 0.336403 0.624403
vt 0.381558 0.509177
vt 0.378910 0.551282
vt 0.372662 0.590613
vt 0.366361 0.619166
vt 0.178386 0.506740
vt 0.138496 0.506347
vt 0.098682 0.506133
vt 0.078620 0.506333
vt 0.058559 0.506534
vt 0.177909 0.546719
vt 0.138047 0.545992
vt 0.098770 0.545501
vt 0.079326 0.545889
vt 0.059882 0.546277
vt 0.177115 0.586896
vt 0.137030 0.585368
vt 0.098449 0.583467
vt 0.080510 0.583418
vt 0.062570 0.583369
vt 0.175823 0.627927
vt 0.134549 0.625239
vt 0.095872 0.619080
vt 0.081811 0.615989
vt 0.067750 0.612898
vt 0.030797 0.380785
vt 0.028540 0.423658
vt 0.038026 0.336960
vt 0.048688 0.317488
vt 0.028101 0.465821
vt 0.031072 0.548454
vt 0.028924 0.507447
vt 0.035623 0.588669
vt 0.047248 0.627405
vt 0.131230 0.656509
vt 0.174670 0.658829
vt 0.086776 0.649125
vt 0.067012 0.638265
vt 0.217359 0.659296
vt 0.301011 0.656313
vt 0.259493 0.658475
vt 0.341762 0.651730
vt 0.381067 0.639989
vt 0.410784 0.554684
vt 0.413241 0.510315
vt 0.403187 0.599891
vt 0.413748 0.466369
vt 0.409253 0.378077
vt 0.412710 0.422338
vt 0.400704 0.333426
vt 0.389338 0.313879
vt 0.136935 0.281949
vt 0.177107 0.279702
vt 0.097439 0.286515
vt 0.078395 0.292265
vt 0.217681 0.278665
vt 0.299058 0.280109
vt 0.258415 0.278665
vt 0.338995 0.283712
vt 0.377971 0.294332
vt 0.059351 0.298016
vt 0.102739 0.348310
vn 0.000000 -1.000000 -0.000000
vn 0.000000 1.000000 0.000000
vn -0.000000 0.000000 1.000000
vn -1.000000 -0.000000 -0.000000
vn 0.000000 -0.000000 -1.000000
vn 1.000000 -0.000000 0.000000
usemtl Material.001
s off
f 1/1/1 11/2/1 14/3/1 2/4/1
f 2/4/1 14/3/1 15/5/1 3/6/1
f 3/6/1 15/5/1 16/7/1 4/8/1
f 91/9/1 92/10/1 52/11/1 53/12/1
f 11/2/1 12/13/1 17/14/1 14/3/1
f 14/3/1 17/14/1 18/15/1 15/5/1
f 15/5/1 18/15/1 19/16/1 16/7/1
f 92/10/1 93/17/1 51/18/1 52/11/1
f 12/13/1 13/19/1 20/20/1 17/14/1
f 17/14/1 20/20/1 21/21/1 18/15/1
f 18/15/1 21/21/1 22/22/1 19/16/1
f 93/17/1 94/23/1 50/24/1 51/18/1
f 85/25/1 60/26/1 59/27/1 82/28/1
f 82/28/1 59/27/1 58/29/1 83/30/1
f 83/30/1 58/29/1 57/31/1 84/32/1
f 100/33/1 98/34/1 78/35/1 89/36/1
f 1/1/1 2/4/1 23/37/1 5/38/1
f 5/38/1 23/37/1 24/39/1 6/40/1
f 6/40/1 24/39/1 25/41/1 7/42/1
f 7/42/1 25/41/1 66/43/1 67/44/1
f 2/4/1 3/6/1 26/45/1 23/37/1
f 23/37/1 26/45/1 27/46/1 24/39/1
f 24/39/1 27/46/1 28/47/1 25/41/1
f 25/41/1 28/47/1 65/48/1 66/43/1
f 3/6/1 4/8/1 29/49/1 26/45/1
f 26/45/1 29/49/1 30/50/1 27/46/1
f 27/46/1 30/50/1 31/51/1 28/47/1
f 28/47/1 31/51/1 64/52/1 65/48/1
f 91/9/1 53/12/1 54/53/1 95/54/1
f 95/54/1 54/53/1 55/55/1 96/56/1
f 96/56/1 55/55/1 56/57/1 97/58/1
f 97/58/1 56/57/1 79/59/1 99/60/1
f 1/1/1 5/38/1 32/61/1 8/62/1
f 8/62/1 32/61/1 33/63/1 9/64/1
f 9/64/1 33/63/1 34/65/1 10/66/1
f 10/66/1 34/65/1 73/67/1 74/68/1
f 5/38/1 6/40/1 35/69/1 32/61/1
f 32/61/1 35/69/1 36/70/1 33/63/1
f 33/63/1 36/70/1 37/71/1 34/65/1
f 34/65/1 37/71/1 72/72/1 73/67/1
f 6/40/1 7/42/1 38/73/1 35/69/1
f 35/69/1 38/73/1 39/74/1 36/70/1
f 36/70/1 39/74/1 40/75/1 37/71/1
f 37/71/1 40/75/1 71/76/1 72/72/1
f 7/42/1 67/44/1 68/77/1 38/73/1
f 38/73/1 68/77/1 69/78/1 39/74/1
f 39/74/1 69/78/1 70/79/1 40/75/1
f 40/75/1 70/79/1 80/80/1 71/76/1
f 1/1/1 8/62/1 41/81/1 11/2/1
f 11/2/1 41/81/1 42/82/1 12/13/1
f 12/13/1 42/82/1 43/83/1 13/19/1
f 85/25/1 86/84/1 61/85/1 60/26/1
f 8/62/1 9/64/1 44/86/1 41/81/1
f 41/81/1 44/86/1 45/87/1 42/82/1
f 42/82/1 45/87/1 46/88/1 43/83/1
f 86/84/1 87/89/1 62/90/1 61/85/1
f 9/64/1 10/66/1 47/91/1 44/86/1
f 44/86/1 47/91/1 48/92/1 45/87/1
f 45/87/1 48/92/1 49/93/1 46/88/1
f 87/89/1 88/94/1 63/95/1 62/90/1
f 10/66/1 74/68/1 75/96/1 47/91/1
f 47/91/1 75/96/1 76/97/1 48/92/1
f 48/92/1 76/97/1 77/98/1 49/93/1
f 88/94/1 90/99/1 81/100/1 63/95/1
f 49/93/1 77/98/1 90/99/1 88/94/1
f 46/88/1 49/93/1 88/94/1 87/89/1
f 43/83/1 46/88/1 87/89/1 86/84/1
f 13/19/1 43/83/1 86/84/1 85/25/1
f 94/23/1 100/33/1 89/36/1 50/24/1
f 21/21/1 83/30/1 84/32/1 22/22/1
f 20/20/1 82/28/1 83/30/1 21/21/1
f 13/19/1 85/25/1 82/28/1 20/20/1
f 22/22/1 84/32/1 100/33/1 94/23/1
f 31/51/1 97/58/1 99/60/1 64/52/1
f 30/50/1 96/56/1 97/58/1 31/51/1
f 29/49/1 95/54/1 96/56/1 30/50/1
f 4/8/1 91/9/1 95/54/1 29/49/1
f 84/32/1 57/31/1 98/34/1 100/33/1
f 19/16/1 22/22/1 94/23/1 93/17/1
f 16/7/1 19/16/1 93/17/1 92/10/1
f 4/8/1 16/7/1 92/10/1 91/9/1
f 101/101/2 111/102/2 114/103/2 102/104/2
f 102/104/2 114/103/2 115/105/2 103/106/2
f 103/106/2 115/105/2 116/107/2 104/108/2
f 213/109/2 214/110/2 186/111/2 187/112/2
f 111/102/2 112/113/2 117/114/2 114/103/2
f 114/103/2 117/114/2 118/115/2 115/105/2
f 115/105/2 118/115/2 119/116/2 116/107/2
f 214/110/2 215/117/2 185/118/2 186/111/2
f 112/113/2 113/119/2 120/120/2 117/114/2
f 117/114/2 120/120/2 121/121/2 118/115/2
f 121/121/3 225/122/3 242/122/3 238/121/3
f 215/117/2 216/123/2 184/124/2 185/118/2
f 227/125/2 180/126/2 179/127/2 224/128/2
f 224/128/2 179/127/2 178/129/2 225/122/2
f 225/122/2 178/129/2 177/130/2 226/131/2
f 235/132/2 222/133/2 209/134/2 233/135/2
f 101/101/2 102/104/2 122/136/2 105/137/2
f 105/137/2 122/136/2 123/138/2 106/139/2
f 106/139/2 123/138/2 124/140/2 107/141/2
f 107/141/2 124/140/2 202/142/2 201/143/2
f 102/104/2 103/106/2 125/144/2 122/136/2
f 122/136/2 125/144/2 126/145/2 123/138/2
f 123/138/2 126/145/2 127/146/2 124/140/2
f 124/140/2 127/146/2 203/147/2 202/142/2
f 103/106/2 104/108/2 128/148/2 125/144/2
f 125/144/2 128/148/2 129/149/2 126/145/2
f 126/145/2 129/149/2 130/150/2 127/146/2
f 127/146/2 130/150/2 204/151/2 203/147/2
f 213/109/2 187/112/2 188/152/2 217/153/2
f 217/153/2 188/152/2 189/154/2 218/155/2
f 218/155/2 189/154/2 190/156/2 219/157/2
f 219/157/2 190/156/2 212/158/2 223/159/2
f 101/101/2 105/137/2 131/160/2 108/161/2
f 108/161/2 131/160/2 132/162/2 109/163/2
f 109/163/2 132/162/2 133/164/2 110/165/2
f 110/165/2 133/164/2 195/166/2 194/167/2
f 105/137/2 106/139/2 134/168/2 131/160/2
f 131/160/2 134/168/2 135/169/2 132/162/2
f 132/162/2 135/169/2 136/170/2 133/164/2
f 133/164/2 136/170/2 196/171/2 195/166/2
f 106/139/2 107/141/2 137/172/2 134/168/2
f 134/168/2 137/172/2 138/173/2 135/169/2
f 135/169/2 138/173/2 139/174/2 136/170/2
f 136/170/2 139/174/2 197/175/2 196/171/2
f 107/141/2 201/143/2 200/176/2 137/172/2
f 137/172/2 200/176/2 199/177/2 138/173/2
f 138/173/2 199/177/2 198/178/2 139/174/2
f 139/174/2 198/178/2 211/179/2 197/175/2
f 101/101/2 108/161/2 140/180/2 111/102/2
f 111/102/2 140/180/2 141/181/2 112/113/2
f 112/113/2 141/181/2 142/182/2 113/119/2
f 227/125/2 228/183/2 181/184/2 180/126/2
f 108/161/2 109/163/2 143/185/2 140/180/2
f 140/180/2 143/185/2 144/186/2 141/181/2
f 141/181/2 144/186/2 145/187/2 142/182/2
f 228/183/2 229/188/2 182/189/2 181/184/2
f 109/163/2 110/165/2 146/190/2 143/185/2
f 143/185/2 146/190/2 147/191/2 144/186/2
f 144/186/2 147/191/2 148/192/2 145/187/2
f 229/188/2 230/193/2 183/194/2 182/189/2
f 110/165/2 194/167/2 193/195/2 146/190/2
f 146/190/2 193/195/2 192/196/2 147/191/2
f 147/191/2 192/196/2 191/197/2 148/192/2
f 230/193/2 234/198/2 210/199/2 183/194/2
f 150/200/4 178/129/4 179/127/4 151/201/4
f 149/202/4 177/130/4 178/129/4 150/200/4
f 220/203/4 222/133/4 177/130/4 149/202/4
f 151/201/4 179/127/4 180/126/4 152/204/4
f 182/189/4 154/205/4 153/206/4 181/184/4
f 183/194/4 155/207/4 154/205/4 182/189/4
f 206/208/4 155/207/4 183/194/4 210/199/4
f 181/184/4 153/206/4 152/204/4 180/126/4
f 164/209/5 192/196/5 193/195/5 165/210/5
f 163/211/5 191/197/5 192/196/5 164/209/5
f 232/212/5 234/198/5 191/197/5 163/211/5
f 165/210/5 193/195/5 194/167/5 166/213/5
f 196/171/5 168/214/5 167/215/5 195/166/5
f 197/175/5 169/216/5 168/214/5 196/171/5
f 207/217/5 169/216/5 197/175/5 211/179/5
f 195/166/5 167/215/5 166/213/5 194/167/5
f 171/218/6 199/177/6 200/176/6 172/219/6
f 170/220/6 198/178/6 199/177/6 171/218/6
f 207/217/6 211/179/6 198/178/6 170/220/6
f 172/219/6 200/176/6 201/143/6 173/221/6
f 203/147/6 175/222/6 174/223/6 202/142/6
f 204/151/6 176/224/6 175/222/6 203/147/6
f 221/225/6 176/224/6 204/151/6 223/159/6
f 202/142/6 174/223/6 173/221/6 201/143/6
f 185/118/3 157/226/3 158/227/3 186/111/3
f 184/124/3 156/228/3 157/226/3 185/118/3
f 231/229/3 156/228/3 184/124/3 233/135/3
f 186/111/3 158/227/3 159/230/3 187/112/3
f 161/231/3 189/154/3 188/152/3 160/232/3
f 162/233/3 190/156/3 189/154/3 161/231/3
f 208/234/3 212/158/3 190/156/3 162/233/3
f 160/232/3 188/152/3 187/112/3 159/230/3
f 208/234/6 221/225/6 223/159/6 212/158/6
f 205/235/4 209/134/4 222/133/4 220/203/4
f 130/150/2 219/157/2 223/159/2 204/151/2
f 129/149/2 218/155/2 219/157/2 130/150/2
f 128/148/2 217/153/2 218/155/2 129/149/2
f 104/108/2 213/109/2 217/153/2 128/148/2
f 226/131/2 177/130/2 222/133/2 235/132/2
f 235/132/5 216/123/5 241/123/5 244/132/5
f 116/107/2 119/116/2 215/117/2 214/110/2
f 104/108/2 116/107/2 214/110/2 213/109/2
f 226/131/6 235/132/6 244/132/6 243/131/6
f 205/235/3 231/229/3 233/135/3 209/134/3
f 206/208/5 210/199/5 234/198/5 232/212/5
f 148/192/2 191/197/2 234/198/2 230/193/2
f 145/187/2 148/192/2 230/193/2 229/188/2
f 142/182/2 145/187/2 229/188/2 228/183/2
f 113/119/2 142/182/2 228/183/2 227/125/2
f 216/123/2 235/132/2 233/135/2 184/124/2
f 118/115/3 121/121/3 238/121/3 236/115/3
f 120/120/2 224/128/2 225/122/2 121/121/2
f 113/119/2 227/125/2 224/128/2 120/120/2
f 236/115/2 238/121/2 239/236/2 237/116/2
f 237/116/2 239/236/2 241/123/2 240/117/2
f 239/236/2 243/131/2 244/132/2 241/123/2
f 238/121/2 242/122/2 243/131/2 239/236/2
f 215/117/4 119/116/4 237/116/4 240/117/4
f 119/116/4 118/115/4 236/115/4 237/116/4
f 216/123/5 215/117/5 240/117/5 241/123/5
f 225/122/6 226/131/6 243/131/6 242/122/6
