# Blender v2.75 (sub 0) OBJ File: 'LevelTest.blend'
# www.blender.org
mtllib houseback.mtl
o Cube.013_Cube.056
v 2.836042 -2.000125 -0.419789
v 2.836042 1.999874 -0.419789
v 2.836042 -2.000125 0.425679
v 2.836042 1.999874 0.419931
v -2.003678 -2.000125 0.419930
v -2.003678 1.999874 0.419930
v 1.996322 -2.000125 0.419931
v 1.996322 1.999874 0.419931
v -2.843398 -2.000125 -0.419790
v -2.843398 1.999874 -0.419790
v -2.843398 -2.000125 0.410380
v -2.843398 1.999874 0.410380
v 2.836042 -2.000125 0.419931
v 1.996322 -2.000125 -0.419789
v 1.996322 1.999874 -0.419789
v -2.003678 -2.000125 -0.419790
v -2.003678 1.999874 -0.419790
v 2.836042 1.999874 0.431426
vt 1.001931 0.635115
vt 1.001931 0.495767
vt 0.853869 0.495767
vt 0.705807 0.495767
vt 0.705807 0.525020
vt 0.643642 0.693621
vt 0.643642 0.778197
vt 0.495580 0.778197
vt 0.674725 0.693621
vt 0.674725 0.664368
vt 0.674725 0.495767
vt 0.674725 0.525020
vt 1.001931 0.663288
vt 0.853869 0.635115
vt 0.643642 0.664368
vt 0.822787 0.833520
vt 0.822786 0.749220
vt 0.970848 0.749219
vt 0.854499 0.661818
vt 0.674725 0.664919
vt 0.822786 0.664919
vt 0.822786 0.862774
vt 0.643642 0.525020
vt 0.674725 0.862774
vt 0.705807 0.862774
vt 0.705807 0.892027
vt 0.853869 0.525020
vt 0.495580 0.693621
vt 0.970848 0.833520
vt 0.643642 0.495767
vt 0.674725 0.892027
vn -0.000000 0.000000 1.000000
vn 0.000000 1.000000 0.000000
vn -1.000000 0.000000 0.000000
vn 0.000000 -1.000000 0.000000
vn -0.011400 0.000000 0.999900
vn 1.000000 -0.000000 0.000000
vn -0.013700 -0.001400 0.999900
vn 0.000000 0.000000 -1.000000
vn -0.006800 0.000000 1.000000
g Cube.013_Cube.056_Material.007
usemtl Material.007
s off
f 5/1/1 7/2/1 8/3/1
f 15/3/2 17/4/2 6/5/2
f 9/6/3 11/7/3 12/8/3
f 11/6/4 9/9/4 16/10/4
f 17/4/2 10/11/2 12/12/2
f 11/13/5 5/1/5 6/14/5
f 5/15/4 16/10/4 14/12/4
f 2/16/6 18/17/6 3/18/6
f 3/1/7 18/14/7 8/19/7
f 2/20/8 1/21/8 9/22/8
f 7/23/4 14/12/4 1/11/4
f 4/24/2 2/25/2 15/26/2
f 6/14/1 5/1/1 8/3/1
f 8/27/2 15/3/2 6/5/2
f 10/28/3 9/6/3 12/8/3
f 5/15/4 11/6/4 16/10/4
f 6/5/2 17/4/2 12/12/2
f 12/19/5 11/13/5 6/14/5
f 7/23/4 5/15/4 14/12/4
f 1/29/6 2/16/6 3/18/6
f 7/13/9 3/1/9 8/19/9
f 10/24/8 2/20/8 9/22/8
f 13/30/4 7/23/4 1/11/4
f 8/31/2 4/24/2 15/26/2
l 15 14
l 17 16
l 4 13
