# Blender v2.75 (sub 0) OBJ File: ''
# www.blender.org
mtllib houseside.mtl
o Cube.014_Cube.057_Material.007
v -0.418780 -2.000000 -2.158160
v -0.418780 -2.000000 1.841841
v -0.418780 2.000000 1.841840
v -0.418780 2.000000 -2.158160
v 0.420940 2.000000 -2.173974
v 0.420940 2.000000 1.851390
v 0.420940 -2.000000 1.851390
v 0.420940 -2.000000 -2.173974
vt 0.643642 1.002122
vt 0.643642 0.862774
vt 0.495580 0.862774
vt 0.970848 0.804267
vt 0.970848 0.664919
vt 1.001935 0.664919
vt 0.705807 0.664368
vt 0.705807 0.525020
vt 0.674725 0.525020
vt 0.674725 0.833520
vt 0.643642 0.833520
vt 0.643642 0.694172
vt 0.643642 0.778197
vt 0.495580 1.002122
vt 1.001935 0.804267
vt 0.674725 0.664919
vt 0.674725 0.693621
vt 0.495580 0.778197
vn -1.000000 0.000000 0.000000
vn -0.580300 -0.578000 0.573800
vn -0.580300 0.578000 0.573800
vn -0.018800 -0.000000 -0.999800
vn -0.000000 1.000000 -0.000000
vn 0.574400 0.576800 0.580900
vn 0.574400 -0.576800 0.580900
vn 0.000000 -1.000000 0.000000
vn 1.000000 -0.000000 -0.000000
usemtl Material.007
s 1
f 1/1/1 2/2/2 3/3/3
f 1/4/4 4/5/4 5/6/4
f 4/7/5 3/8/3 6/9/6
f 7/10/7 2/11/2 1/12/8
f 7/13/7 8/2/9 5/3/9
f 4/14/1 1/1/1 3/3/3
f 8/15/4 1/4/4 5/6/4
f 5/16/5 4/7/5 6/9/6
f 8/17/8 7/10/7 1/12/8
f 6/18/6 7/13/7 5/3/9
f 6/18/6 3/8/3 2/2/2 7/10/7
