# Blender v2.75 (sub 0) OBJ File: 'LevelTest.blend'
# www.blender.org
mtllib LevelTest.mtl
o Cube.001
v -5.960971 -0.015805 4.866372
v -5.960971 0.659865 4.866372
v -5.960971 -0.015805 2.866372
v -5.960971 0.659865 2.866372
v -3.960971 -0.015805 4.866372
v -3.960971 0.659865 4.866372
v -3.960971 -0.015805 2.866372
v -3.960971 0.659865 2.866372
v -5.960531 -0.008442 -3.036880
v -5.960531 0.667228 -3.036880
v -5.960531 -0.008442 -5.036880
v -5.960531 0.667228 -5.036880
v -3.960531 -0.008442 -3.036880
v -3.960531 0.667228 -3.036880
v -3.960531 -0.008442 -5.036880
v -3.960531 0.667228 -5.036880
v -2.948625 0.833618 -3.036880
v -2.948625 1.509288 -3.036880
v -2.948625 0.833618 -5.036880
v -2.948625 1.509288 -5.036880
v -0.948625 0.833618 -3.036880
v -0.948625 1.509288 -3.036880
v -0.948625 0.833618 -5.036880
v -0.948625 1.509288 -5.036880
v -0.023566 1.436571 -3.058709
v -0.023566 2.112241 -3.058709
v -0.023566 1.436571 -5.058709
v -0.023566 2.112241 -5.058709
v 1.976434 1.436571 -3.058709
v 1.976434 2.112241 -3.058709
v 1.976434 1.436571 -5.058709
v 1.976434 2.112241 -5.058709
v 0.000000 -0.433946 -0.000000
v 1.718629 -0.433946 -0.000000
v 3.437258 -0.433946 0.000000
v 5.155888 -0.433946 0.000000
v 0.000000 -0.433946 1.718629
v 0.000000 -0.433946 3.437258
v -0.000000 -0.433946 5.155888
v -1.718629 -0.433946 -0.000001
v -3.437258 -0.433946 -0.000001
v -5.155887 -0.433946 -0.000001
v 0.000000 -0.433946 -1.718630
v 0.000001 -0.433946 -3.437259
v 0.000001 -0.433946 -5.155889
v 1.718629 -0.433946 -1.718629
v 3.437258 -0.433946 -1.718629
v 5.155888 -0.433946 -1.718629
v 1.718630 -0.433946 -3.437259
v 3.437259 -0.433946 -3.437258
v 5.155888 -0.433946 -3.437258
v 1.718630 -0.433946 -5.155888
v 3.437259 -0.433946 -5.155888
v 5.155888 -0.433946 -5.155887
v 1.718629 -0.433946 1.718629
v 1.718629 -0.433946 3.437258
v 1.718629 -0.433946 5.155888
v 3.437258 -0.433946 1.718629
v 3.437258 -0.433946 3.437258
v 3.437258 -0.433946 5.155888
v 5.155888 -0.433946 1.718629
v 5.155888 -0.433946 3.437258
v 5.155888 -0.433946 5.155888
v -1.718629 -0.433946 1.718628
v -3.437258 -0.433946 1.718628
v -5.155887 -0.433946 1.718628
v -1.718629 -0.433946 3.437258
v -3.437258 -0.433946 3.437258
v -5.155888 -0.433946 3.437258
v -1.718630 -0.433946 5.155888
v -3.437259 -0.433946 5.155888
v -5.155888 -0.433946 5.155888
v -1.718628 -0.433946 -1.718630
v -1.718628 -0.433946 -3.437260
v -1.718628 -0.433946 -5.155889
v -3.437258 -0.433946 -1.718630
v -3.437257 -0.433946 -3.437260
v -3.437257 -0.433946 -5.155890
v -5.155887 -0.433946 -1.718631
v -5.155886 -0.433946 -3.437260
v -5.155886 -0.433946 -5.155890
v -0.000001 -0.012548 0.000001
v 0.000000 -0.012548 -1.718628
v 0.000000 -0.012548 -3.437257
v 0.000001 -0.012548 -5.155886
v -1.718630 -0.012548 0.000001
v -3.437259 -0.012548 0.000000
v -5.155889 -0.012548 -0.000000
v -0.000001 -0.012548 1.718631
v -0.000002 -0.012548 3.437259
v -0.000003 -0.012548 5.155889
v 1.718628 -0.012548 0.000002
v 3.437258 -0.012548 0.000003
v 5.155887 -0.012548 0.000004
v 1.718629 -0.012548 -1.718627
v 1.718630 -0.012548 -3.437256
v 1.718631 -0.012548 -5.155885
v 3.437258 -0.012548 -1.718626
v 3.437259 -0.012548 -3.437256
v 3.437260 -0.012548 -5.155885
v 5.155888 -0.012548 -1.718626
v 5.155889 -0.012548 -3.437255
v 5.155890 -0.012548 -5.155885
v -1.718629 -0.012548 -1.718628
v -3.437259 -0.012548 -1.718629
v -5.155888 -0.012548 -1.718629
v -1.718629 -0.012548 -3.437258
v -3.437258 -0.012548 -3.437258
v -5.155888 -0.012548 -3.437258
v -1.718628 -0.012548 -5.155887
v -3.437258 -0.012548 -5.155887
v -5.155887 -0.012548 -5.155888
v -1.718630 -0.012548 1.718630
v -1.718631 -0.012548 3.437259
v -1.718632 -0.012548 5.155888
v -3.437259 -0.012548 1.718629
v -3.437260 -0.012548 3.437258
v -3.437261 -0.012548 5.155888
v -5.155889 -0.012548 1.718628
v -5.155889 -0.012548 3.437258
v -5.155890 -0.012548 5.155887
v 1.718627 -0.012548 1.718631
v 3.437256 -0.012548 1.718632
v 5.155886 -0.012548 1.718633
v 1.718627 -0.012548 3.437260
v 3.437256 -0.012548 3.437261
v 5.155885 -0.012548 3.437262
v 1.718626 -0.012548 5.155890
v 3.437255 -0.012548 5.155890
v 5.155884 -0.012548 5.155891
v 6.874517 -0.433946 -5.155887
v 6.874517 -0.433946 -3.437258
v 6.874517 -0.433946 -1.718629
v 6.874517 -0.433946 0.000000
v 6.874517 -0.433946 1.718630
v 6.874517 -0.433946 3.437259
v 6.874517 -0.433946 5.155888
v 5.155888 -0.433946 -6.874516
v 3.437259 -0.433946 -6.874516
v 1.718630 -0.433946 -6.874516
v 0.000001 -0.433946 -6.874517
v -1.718628 -0.433946 -6.874518
v -3.437256 -0.433946 -6.874518
v -5.155886 -0.433946 -6.874518
v 5.155888 -0.433946 6.874517
v 3.437258 -0.433946 6.874516
v 1.718629 -0.433946 6.874516
v -0.000000 -0.433946 6.874516
v -1.718630 -0.433946 6.874516
v -3.437259 -0.433946 6.874516
v -5.155889 -0.433946 6.874516
v -6.874517 -0.433946 5.155888
v -6.874517 -0.433946 3.437258
v -6.874516 -0.433946 1.718628
v -6.874516 -0.433946 -0.000001
v -6.874516 -0.433946 -1.718631
v -6.874516 -0.433946 -3.437261
v -6.874515 -0.433946 -5.155890
v 6.874520 -0.012548 -5.155884
v 6.874518 -0.012548 -3.437255
v 6.874517 -0.012548 -1.718625
v 6.874516 -0.012548 0.000004
v 6.874516 -0.012548 1.718634
v 6.874515 -0.012548 3.437263
v 6.874514 -0.012548 5.155892
v 5.155890 -0.012548 -6.874514
v 3.437261 -0.012548 -6.874515
v 1.718631 -0.012548 -6.874515
v 0.000002 -0.012548 -6.874516
v -1.718628 -0.012548 -6.874516
v -3.437258 -0.012548 -6.874516
v -5.155887 -0.012548 -6.874516
v 5.155884 -0.012548 6.874520
v 3.437254 -0.012548 6.874519
v 1.718626 -0.012548 6.874518
v -0.000003 -0.012548 6.874518
v -1.718632 -0.012548 6.874517
v -3.437261 -0.012548 6.874516
v -5.155890 -0.012548 6.874516
v -6.874518 -0.012548 5.155886
v -6.874518 -0.012548 3.437257
v -6.874518 -0.012548 1.718628
v -6.874518 -0.012548 -0.000001
v -6.874517 -0.012548 -1.718630
v -6.874517 -0.012548 -3.437259
v -6.874517 -0.012548 -5.155888
v 6.874517 -0.433946 -6.874516
v 6.874517 -0.433946 6.874517
v -6.874518 -0.433946 6.874516
v -6.874515 -0.433946 -6.874519
v 6.874520 -0.012548 -6.874513
v 6.874512 -0.012548 6.874521
v -6.874519 -0.012548 6.874515
v -6.874516 -0.012548 -6.874516
v 6.753417 -0.053161 1.970247
v 6.701987 -0.056646 2.083055
vt 0.464193 0.096036
vt 0.547526 0.096036
vt 0.547526 0.179369
vt 0.464193 0.012702
vt 0.547526 0.012702
vt 0.380859 0.012702
vt 0.464193 0.179369
vt 0.380859 0.179369
vt 0.630859 0.012702
vt 0.630859 0.096036
vt 0.464193 0.262702
vt 0.380859 0.096036
vt 0.380859 0.262702
vt 0.720079 0.101582
vt 0.636745 0.101563
vt 0.636764 0.018230
vt 0.553374 0.268211
vt 0.553393 0.184878
vt 0.636726 0.184897
vt 0.720041 0.268249
vt 0.636708 0.268230
vt 0.470041 0.268192
vt 0.470060 0.184859
vt 0.553412 0.101545
vt 0.720097 0.018249
vt 0.720060 0.184916
vt 0.270314 0.253611
vt 0.192941 0.253611
vt 0.192941 0.176238
vt 0.192941 0.098865
vt 0.270314 0.098865
vt 0.347687 0.253611
vt 0.270314 0.176238
vt 0.270314 0.021492
vt 0.347687 0.021492
vt 0.115569 0.176238
vt 0.347687 0.098865
vt 0.347687 0.176238
vt 0.115569 0.253611
vt 0.034230 0.094743
vt 0.110368 0.094743
vt 0.110368 0.170882
vt 0.186507 0.018605
vt 0.186507 0.094743
vt 0.186507 0.170882
vt 0.110368 0.247020
vt 0.034230 0.247020
vt 0.262645 0.094743
vt 0.034230 0.018605
vt 0.034230 0.170882
vt 0.110368 0.018605
vt 0.262645 0.018605
vt 0.186166 0.817502
vt 0.225683 0.817502
vt 0.225683 0.857018
vt 0.186166 0.857018
vt 0.225683 0.896535
vt 0.186166 0.896535
vt 0.225683 0.936051
vt 0.186166 0.936051
vt 0.225683 0.975567
vt 0.186166 0.975567
vt 0.265199 0.817502
vt 0.265199 0.857018
vt 0.265199 0.896535
vt 0.265199 0.936051
vt 0.265199 0.975567
vt 0.304715 0.817502
vt 0.304715 0.857018
vt 0.304715 0.896535
vt 0.304715 0.936051
vt 0.304716 0.975567
vt 0.344232 0.817502
vt 0.344232 0.857018
vt 0.344232 0.896535
vt 0.344232 0.936051
vt 0.344232 0.975567
vt 0.146650 0.857018
vt 0.146650 0.817502
vt 0.107133 0.857018
vt 0.107133 0.817502
vt 0.067617 0.857018
vt 0.067617 0.817502
vt 0.028101 0.857018
vt 0.028101 0.817502
vt 0.146650 0.896535
vt 0.107133 0.896535
vt 0.067617 0.896535
vt 0.028101 0.896535
vt 0.146650 0.936051
vt 0.107133 0.936051
vt 0.067617 0.936051
vt 0.028101 0.936051
vt 0.146650 0.975567
vt 0.107133 0.975567
vt 0.067617 0.975567
vt 0.028101 0.975567
vt 0.146650 0.777985
vt 0.186166 0.777985
vt 0.146650 0.738469
vt 0.186166 0.738469
vt 0.146650 0.698953
vt 0.186166 0.698953
vt 0.146650 0.659436
vt 0.186166 0.659436
vt 0.107133 0.777985
vt 0.107133 0.738469
vt 0.107133 0.698953
vt 0.107133 0.659436
vt 0.067617 0.777985
vt 0.067617 0.738469
vt 0.067617 0.698953
vt 0.067617 0.659436
vt 0.028101 0.777986
vt 0.028101 0.738469
vt 0.028101 0.698953
vt 0.028101 0.659436
vt 0.225683 0.777985
vt 0.265199 0.777985
vt 0.304715 0.777985
vt 0.344232 0.777985
vt 0.225683 0.738469
vt 0.265199 0.738469
vt 0.304715 0.738469
vt 0.344232 0.738469
vt 0.225683 0.698953
vt 0.265199 0.698953
vt 0.304715 0.698953
vt 0.344232 0.698953
vt 0.225683 0.659436
vt 0.265199 0.659436
vt 0.304715 0.659436
vt 0.344232 0.659436
vt 0.218620 0.466974
vt 0.178712 0.466794
vt 0.178949 0.426960
vt 0.218691 0.427027
vt 0.179083 0.387374
vt 0.218604 0.387287
vt 0.178938 0.348050
vt 0.218382 0.347696
vt 0.178190 0.308664
vt 0.218037 0.307894
vt 0.138867 0.466488
vt 0.139323 0.426654
vt 0.139878 0.387205
vt 0.140150 0.348446
vt 0.139184 0.310208
vt 0.098873 0.466117
vt 0.099586 0.425975
vt 0.100991 0.386367
vt 0.102739 0.348310
vt 0.102719 0.312995
vt 0.058213 0.465813
vt 0.059052 0.424768
vt 0.061644 0.384017
vt 0.067640 0.345871
vt 0.073672 0.318161
vt 0.258586 0.426899
vt 0.258709 0.467051
vt 0.298672 0.426498
vt 0.299050 0.466996
vt 0.339211 0.425630
vt 0.339975 0.466829
vt 0.380918 0.424012
vt 0.382169 0.466575
vt 0.258257 0.387028
vt 0.297855 0.386477
vt 0.337385 0.385160
vt 0.377612 0.382110
vt 0.257944 0.347455
vt 0.297067 0.347240
vt 0.334991 0.346459
vt 0.370699 0.343241
vt 0.258008 0.307836
vt 0.297329 0.308544
vt 0.334290 0.310631
vt 0.363909 0.315155
vt 0.258602 0.507335
vt 0.218431 0.507080
vt 0.258326 0.547600
vt 0.218102 0.547257
vt 0.258158 0.587861
vt 0.217700 0.587673
vt 0.258575 0.628472
vt 0.217366 0.628814
vt 0.298928 0.507598
vt 0.298405 0.547946
vt 0.298000 0.587730
vt 0.298813 0.627127
vt 0.339670 0.508107
vt 0.338337 0.548842
vt 0.336489 0.588007
vt 0.336403 0.624403
vt 0.381558 0.509177
vt 0.378910 0.551282
vt 0.372662 0.590613
vt 0.366361 0.619166
vt 0.178386 0.506740
vt 0.138496 0.506347
vt 0.098682 0.506133
vt 0.058559 0.506534
vt 0.177909 0.546719
vt 0.138047 0.545992
vt 0.098770 0.545501
vt 0.059882 0.546277
vt 0.177115 0.586896
vt 0.137030 0.585368
vt 0.098449 0.583467
vt 0.062570 0.583369
vt 0.175823 0.627927
vt 0.134549 0.625239
vt 0.095872 0.619080
vt 0.067750 0.612898
vt 0.030797 0.380785
vt 0.028540 0.423658
vt 0.038026 0.336960
vt 0.059351 0.298016
vt 0.028101 0.465821
vt 0.031072 0.548454
vt 0.028924 0.507447
vt 0.035623 0.588669
vt 0.047248 0.627405
vt 0.131230 0.656509
vt 0.174670 0.658829
vt 0.086776 0.649125
vt 0.217359 0.659296
vt 0.301011 0.656313
vt 0.259493 0.658475
vt 0.341762 0.651730
vt 0.381067 0.639989
vt 0.410784 0.554684
vt 0.413241 0.510315
vt 0.403187 0.599891
vt 0.413748 0.466369
vt 0.409253 0.378077
vt 0.412710 0.422338
vt 0.400704 0.333426
vt 0.377971 0.294332
vt 0.136935 0.281949
vt 0.177107 0.279702
vt 0.097439 0.286515
vt 0.217681 0.278665
vt 0.299058 0.280109
vt 0.258415 0.278665
vt 0.338995 0.283712
vn -1.000000 0.000000 0.000000
vn 0.000000 0.000000 -1.000000
vn 1.000000 0.000000 0.000000
vn 0.000000 0.000000 1.000000
vn 0.000000 -1.000000 0.000000
vn 0.000000 1.000000 0.000000
usemtl Material
s off
f 4/1/1 3/2/1 1/3/1
f 8/4/2 7/5/2 3/2/2
f 6/6/3 5/4/3 7/1/3
f 2/1/4 1/7/4 5/8/4
f 3/5/5 7/9/5 5/10/5
f 8/8/6 4/7/6 2/11/6
f 2/7/1 4/1/1 1/3/1
f 4/1/2 8/4/2 3/2/2
f 8/12/3 6/6/3 7/1/3
f 6/12/4 2/1/4 5/8/4
f 1/2/5 3/5/5 5/10/5
f 6/13/6 8/8/6 2/11/6
f 12/14/1 11/15/1 9/16/1
f 16/17/2 15/18/2 11/19/2
f 14/20/3 13/21/3 15/19/3
f 10/19/4 9/15/4 13/14/4
f 11/17/5 15/22/5 13/23/5
f 16/24/6 12/15/6 10/19/6
f 10/25/1 12/14/1 9/16/1
f 12/21/2 16/17/2 11/19/2
f 16/26/3 14/20/3 15/19/3
f 14/26/4 10/19/4 13/14/4
f 9/18/5 11/17/5 13/23/5
f 14/18/6 16/24/6 10/19/6
f 20/27/1 19/28/1 17/29/1
f 24/29/2 23/30/2 19/31/2
f 22/32/3 21/27/3 23/33/3
f 18/31/4 17/34/4 21/35/4
f 19/36/5 23/29/5 21/28/5
f 24/31/6 20/37/6 18/38/6
f 18/33/1 20/27/1 17/29/1
f 20/33/2 24/29/2 19/31/2
f 24/38/3 22/32/3 23/33/3
f 22/37/4 18/31/4 21/35/4
f 17/39/5 19/36/5 21/28/5
f 22/33/6 24/31/6 18/38/6
f 28/40/1 27/41/1 25/42/1
f 32/43/2 31/44/2 27/41/2
f 30/41/3 29/44/3 31/45/3
f 26/42/4 25/46/4 29/47/4
f 27/48/5 31/44/5 29/43/5
f 32/41/6 28/40/6 26/49/6
f 26/50/1 28/40/1 25/42/1
f 28/51/2 32/43/2 27/41/2
f 32/42/3 30/41/3 31/45/3
f 30/50/4 26/42/4 29/47/4
f 25/52/5 27/48/5 29/43/5
f 30/51/6 32/41/6 26/49/6
f 33/53/5 43/54/5 46/55/5 34/56/5
f 34/56/5 46/55/5 47/57/5 35/58/5
f 35/58/5 47/57/5 48/59/5 36/60/5
f 36/60/5 48/59/5 133/61/5 134/62/5
f 43/54/5 44/63/5 49/64/5 46/55/5
f 46/55/5 49/64/5 50/65/5 47/57/5
f 47/57/5 50/65/5 51/66/5 48/59/5
f 48/59/5 51/66/5 132/67/5 133/61/5
f 44/63/5 45/68/5 52/69/5 49/64/5
f 49/64/5 52/69/5 53/70/5 50/65/5
f 50/65/5 53/70/5 54/71/5 51/66/5
f 51/66/5 54/71/5 131/72/5 132/67/5
f 45/68/5 141/73/5 140/74/5 52/69/5
f 52/69/5 140/74/5 139/75/5 53/70/5
f 53/70/5 139/75/5 138/76/5 54/71/5
f 54/71/5 138/76/5 187/77/5 131/72/5
f 33/53/5 34/56/5 55/78/5 37/79/5
f 37/79/5 55/78/5 56/80/5 38/81/5
f 38/81/5 56/80/5 57/82/5 39/83/5
f 39/83/5 57/82/5 147/84/5 148/85/5
f 34/56/5 35/58/5 58/86/5 55/78/5
f 55/78/5 58/86/5 59/87/5 56/80/5
f 56/80/5 59/87/5 60/88/5 57/82/5
f 57/82/5 60/88/5 146/89/5 147/84/5
f 35/58/5 36/60/5 61/90/5 58/86/5
f 58/86/5 61/90/5 62/91/5 59/87/5
f 59/87/5 62/91/5 63/92/5 60/88/5
f 60/88/5 63/92/5 145/93/5 146/89/5
f 36/60/5 134/62/5 135/94/5 61/90/5
f 61/90/5 135/94/5 136/95/5 62/91/5
f 62/91/5 136/95/5 137/96/5 63/92/5
f 63/92/5 137/96/5 188/97/5 145/93/5
f 33/53/5 37/79/5 64/98/5 40/99/5
f 40/99/5 64/98/5 65/100/5 41/101/5
f 41/101/5 65/100/5 66/102/5 42/103/5
f 42/103/5 66/102/5 154/104/5 155/105/5
f 37/79/5 38/81/5 67/106/5 64/98/5
f 64/98/5 67/106/5 68/107/5 65/100/5
f 65/100/5 68/107/5 69/108/5 66/102/5
f 66/102/5 69/108/5 153/109/5 154/104/5
f 38/81/5 39/83/5 70/110/5 67/106/5
f 67/106/5 70/110/5 71/111/5 68/107/5
f 68/107/5 71/111/5 72/112/5 69/108/5
f 69/108/5 72/112/5 152/113/5 153/109/5
f 39/83/5 148/85/5 149/114/5 70/110/5
f 70/110/5 149/114/5 150/115/5 71/111/5
f 71/111/5 150/115/5 151/116/5 72/112/5
f 72/112/5 151/116/5 189/117/5 152/113/5
f 33/53/5 40/99/5 73/118/5 43/54/5
f 43/54/5 73/118/5 74/119/5 44/63/5
f 44/63/5 74/119/5 75/120/5 45/68/5
f 45/68/5 75/120/5 142/121/5 141/73/5
f 40/99/5 41/101/5 76/122/5 73/118/5
f 73/118/5 76/122/5 77/123/5 74/119/5
f 74/119/5 77/123/5 78/124/5 75/120/5
f 75/120/5 78/124/5 143/125/5 142/121/5
f 41/101/5 42/103/5 79/126/5 76/122/5
f 76/122/5 79/126/5 80/127/5 77/123/5
f 77/123/5 80/127/5 81/128/5 78/124/5
f 78/124/5 81/128/5 144/129/5 143/125/5
f 42/103/5 155/105/5 156/130/5 79/126/5
f 79/126/5 156/130/5 157/131/5 80/127/5
f 80/127/5 157/131/5 158/132/5 81/128/5
f 81/128/5 158/132/5 190/133/5 144/129/5
f 82/134/6 92/135/6 95/136/6 83/137/6
f 83/137/6 95/136/6 96/138/6 84/139/6
f 84/139/6 96/138/6 97/140/6 85/141/6
f 85/141/6 97/140/6 168/142/6 169/143/6
f 92/135/6 93/144/6 98/145/6 95/136/6
f 95/136/6 98/145/6 99/146/6 96/138/6
f 96/138/6 99/146/6 100/147/6 97/140/6
f 97/140/6 100/147/6 167/148/6 168/142/6
f 93/144/6 94/149/6 101/150/6 98/145/6
f 98/145/6 101/150/6 102/151/6 99/146/6
f 99/146/6 102/151/6 103/152/6 100/147/6
f 100/147/6 103/152/6 166/153/6 167/148/6
f 94/149/6 162/154/6 161/155/6 101/150/6
f 101/150/6 161/155/6 160/156/6 102/151/6
f 102/151/6 160/156/6 159/157/6 103/152/6
f 103/152/6 159/157/6 191/158/6 166/153/6
f 82/134/6 83/137/6 104/159/6 86/160/6
f 86/160/6 104/159/6 105/161/6 87/162/6
f 87/162/6 105/161/6 106/163/6 88/164/6
f 88/164/6 106/163/6 184/165/6 183/166/6
f 83/137/6 84/139/6 107/167/6 104/159/6
f 104/159/6 107/167/6 108/168/6 105/161/6
f 105/161/6 108/168/6 109/169/6 106/163/6
f 106/163/6 109/169/6 185/170/6 184/165/6
f 84/139/6 85/141/6 110/171/6 107/167/6
f 107/167/6 110/171/6 111/172/6 108/168/6
f 108/168/6 111/172/6 112/173/6 109/169/6
f 109/169/6 112/173/6 186/174/6 185/170/6
f 85/141/6 169/143/6 170/175/6 110/171/6
f 110/171/6 170/175/6 171/176/6 111/172/6
f 111/172/6 171/176/6 172/177/6 112/173/6
f 112/173/6 172/177/6 194/178/6 186/174/6
f 82/134/6 86/160/6 113/179/6 89/180/6
f 89/180/6 113/179/6 114/181/6 90/182/6
f 90/182/6 114/181/6 115/183/6 91/184/6
f 91/184/6 115/183/6 177/185/6 176/186/6
f 86/160/6 87/162/6 116/187/6 113/179/6
f 113/179/6 116/187/6 117/188/6 114/181/6
f 114/181/6 117/188/6 118/189/6 115/183/6
f 115/183/6 118/189/6 178/190/6 177/185/6
f 87/162/6 88/164/6 119/191/6 116/187/6
f 116/187/6 119/191/6 120/192/6 117/188/6
f 117/188/6 120/192/6 121/193/6 118/189/6
f 118/189/6 121/193/6 179/194/6 178/190/6
f 88/164/6 183/166/6 182/195/6 119/191/6
f 119/191/6 182/195/6 181/196/6 120/192/6
f 120/192/6 181/196/6 180/197/6 121/193/6
f 121/193/6 180/197/6 193/198/6 179/194/6
f 82/134/6 89/180/6 122/199/6 92/135/6
f 92/135/6 122/199/6 123/200/6 93/144/6
f 93/144/6 123/200/6 124/201/6 94/149/6
f 94/149/6 124/201/6 163/202/6 162/154/6
f 89/180/6 90/182/6 125/203/6 122/199/6
f 122/199/6 125/203/6 126/204/6 123/200/6
f 123/200/6 126/204/6 127/205/6 124/201/6
f 124/201/6 127/205/6 164/206/6 163/202/6
f 90/182/6 91/184/6 128/207/6 125/203/6
f 125/203/6 128/207/6 129/208/6 126/204/6
f 126/204/6 129/208/6 130/209/6 127/205/6
f 127/205/6 130/209/6 165/210/6 164/206/6
f 91/184/6 176/186/6 175/211/6 128/207/6
f 128/207/6 175/211/6 174/212/6 129/208/6
f 129/208/6 174/212/6 173/213/6 130/209/6
f 130/209/6 173/213/6 192/214/6 165/210/6
f 132/215/3 160/156/3 161/155/3 133/216/3
f 131/217/3 159/157/3 160/156/3 132/215/3
f 187/218/3 191/158/3 159/157/3 131/217/3
f 133/216/3 161/155/3 162/154/3 134/219/3
f 164/206/3 136/220/3 135/221/3 163/202/3
f 165/210/3 137/222/3 136/220/3 164/206/3
f 188/223/3 137/222/3 165/210/3 192/214/3
f 163/202/3 135/221/3 134/219/3 162/154/3
f 146/224/4 174/212/4 175/211/4 147/225/4
f 145/226/4 173/213/4 174/212/4 146/224/4
f 188/223/4 192/214/4 173/213/4 145/226/4
f 147/225/4 175/211/4 176/186/4 148/227/4
f 178/190/4 150/228/4 149/229/4 177/185/4
f 179/194/4 151/230/4 150/228/4 178/190/4
f 189/231/4 151/230/4 179/194/4 193/198/4
f 177/185/4 149/229/4 148/227/4 176/186/4
f 153/232/1 181/196/1 182/195/1 154/233/1
f 152/234/1 180/197/1 181/196/1 153/232/1
f 189/231/1 193/198/1 180/197/1 152/234/1
f 154/233/1 182/195/1 183/166/1 155/235/1
f 185/170/1 157/236/1 156/237/1 184/165/1
f 186/174/1 158/238/1 157/236/1 185/170/1
f 190/239/1 158/238/1 186/174/1 194/178/1
f 184/165/1 156/237/1 155/235/1 183/166/1
f 167/148/2 139/240/2 140/241/2 168/142/2
f 166/153/2 138/242/2 139/240/2 167/148/2
f 187/218/2 138/242/2 166/153/2 191/158/2
f 168/142/2 140/241/2 141/243/2 169/143/2
f 143/244/2 171/176/2 170/175/2 142/245/2
f 144/246/2 172/177/2 171/176/2 143/244/2
f 190/239/2 194/178/2 172/177/2 144/246/2
f 142/245/2 170/175/2 169/143/2 141/243/2
l 163 195
l 195 196
