# Blender v2.75 (sub 0) OBJ File: 'simpleenemy.blend'
# www.blender.org
mtllib simpleenemy.mtl
o Cone
v 1.000000 -1.000000 0.000000
v 0.707107 -1.000000 0.707107
v -0.000000 -1.000000 1.000000
v -0.707107 -1.000000 0.707107
v -1.000000 -1.000000 -0.000000
v 0.341608 -0.154890 0.000000
v -0.707107 -1.000000 -0.707107
v 0.000000 -1.000000 -1.000000
v 0.707107 -1.000000 -0.707107
v 0.485605 0.017793 0.000000
v 0.343374 0.017793 -0.343374
v 0.241553 -0.154890 -0.241553
v 0.000000 -0.154890 -0.341608
v -0.241553 -0.154890 -0.241553
v -0.341608 -0.154890 -0.000000
v -0.241553 -0.154890 0.241553
v -0.000000 -0.154890 0.341608
v 0.241553 -0.154890 0.241553
v 0.000000 0.017793 -0.485605
v -0.343374 0.017793 -0.343375
v -0.485605 0.017793 -0.000000
v -0.343374 0.017793 0.343374
v -0.000000 0.017793 0.485605
v 0.343374 0.017793 0.343374
v 0.627421 0.266666 0.000000
v 0.443654 0.266666 -0.443654
v 0.000000 0.266666 -0.627421
v -0.443654 0.266666 -0.443654
v -0.627421 0.266666 -0.000000
v -0.443654 0.266666 0.443654
v -0.000000 0.266666 0.627421
v 0.443654 0.266666 0.443654
v 0.705003 0.551094 0.000000
v 0.498512 0.551094 -0.498513
v 0.000000 0.551094 -0.705003
v -0.498512 0.551094 -0.498513
v -0.705003 0.551094 -0.000000
v -0.498513 0.551094 0.498512
v -0.000000 0.551094 0.705003
v 0.498512 0.551094 0.498513
v 0.618673 0.825364 0.000000
v 0.437468 0.825364 -0.437468
v 0.000000 0.825364 -0.618673
v -0.437468 0.825364 -0.437468
v -0.618673 0.825364 -0.000000
v -0.437468 0.825364 0.437468
v -0.000000 0.825364 0.618673
v 0.437468 0.825364 0.437468
v 0.362481 1.099634 0.000000
v 0.256312 1.099634 -0.256313
v 0.000000 1.099634 -0.362480
v -0.256312 1.099634 -0.256313
v -0.362481 1.099634 -0.000000
v -0.256312 1.099634 0.256312
v -0.000000 1.099634 0.362481
v 0.256312 1.099634 0.256312
v 1.121379 0.769455 0.000000
v 0.792934 0.769455 -0.792934
v 0.000000 0.769455 -1.121378
v -0.792934 0.769455 -0.792935
v -1.121379 0.769455 -0.000000
v -0.792934 0.769455 0.792934
v -0.000000 0.769455 1.121379
v 0.792934 0.769455 0.792934
v -0.000000 1.821202 -0.000000
v -0.000000 -0.285576 0.443420
v -0.313545 -0.285576 0.313545
v 0.313545 -0.285576 0.313545
v 0.313545 -0.285576 -0.313545
v 0.443420 -0.285576 0.000000
v -0.443420 -0.285576 -0.000000
v -0.313545 -0.285576 -0.313545
v 0.000000 -0.285576 -0.443420
v -0.000000 -0.466393 0.584288
v -0.413154 -0.466393 0.413154
v 0.413154 -0.466393 -0.413154
v -0.584288 -0.466393 -0.000000
v -0.413154 -0.466393 -0.413154
v 0.413154 -0.466393 0.413154
v 0.584288 -0.466393 0.000000
v 0.000000 -0.466393 -0.584288
v -0.349918 -0.317906 0.747939
v -0.440352 -0.317906 0.705094
v -0.440351 -0.317906 -0.705094
v -0.349918 -0.317906 -0.747939
v -0.349918 -0.372607 0.787235
v -0.469081 -0.372607 0.696888
v -0.469081 -0.372607 -0.696888
v -0.349918 -0.372607 -0.787235
v -0.811013 0.494988 -0.385216
v -0.722973 0.494988 -0.473256
v -0.602708 0.494988 -0.505481
v -0.482443 0.494988 -0.473256
v -0.394403 0.494988 -0.385216
v -0.811013 0.599141 -0.325084
v -0.722973 0.675385 -0.369104
v -0.602708 0.703293 -0.385216
v -0.482443 0.675385 -0.369104
v -0.394404 0.599141 -0.325084
v -0.843238 0.494988 -0.264951
v -0.811013 0.599141 -0.204819
v -0.722973 0.675385 -0.160799
v -0.602708 0.703293 -0.144686
v -0.482443 0.675385 -0.160799
v -0.394404 0.599141 -0.204819
v -0.811013 0.494988 -0.144687
v -0.722973 0.494988 -0.056647
v -0.602708 0.494988 -0.024422
v -0.482443 0.494988 -0.056647
v -0.394404 0.494988 -0.144687
v -0.811013 0.390836 -0.204819
v -0.722973 0.314591 -0.160799
v -0.602708 0.286683 -0.144687
v -0.482443 0.314591 -0.160799
v -0.394404 0.390836 -0.204819
v -0.811013 0.390836 -0.325084
v -0.722973 0.314591 -0.369104
v -0.602708 0.286683 -0.385216
v -0.482443 0.314591 -0.369104
v -0.394404 0.390836 -0.325084
v -0.362179 0.494988 -0.264951
v -0.811013 0.494988 0.161491
v -0.722973 0.494988 0.073451
v -0.602708 0.494988 0.041226
v -0.482443 0.494988 0.073451
v -0.394404 0.494988 0.161490
v -0.811013 0.599141 0.221623
v -0.722973 0.675385 0.177603
v -0.602708 0.703293 0.161490
v -0.482443 0.675385 0.177603
v -0.394404 0.599141 0.221623
v -0.843238 0.494988 0.281755
v -0.811013 0.599141 0.341888
v -0.722973 0.675385 0.385908
v -0.602708 0.703293 0.402020
v -0.482444 0.675385 0.385908
v -0.394404 0.599141 0.341888
v -0.811013 0.494988 0.402020
v -0.722973 0.494988 0.490060
v -0.602708 0.494988 0.522285
v -0.482444 0.494988 0.490060
v -0.394404 0.494988 0.402020
v -0.811013 0.390836 0.341888
v -0.722973 0.314591 0.385908
v -0.602708 0.286683 0.402020
v -0.482444 0.314591 0.385908
v -0.394404 0.390836 0.341888
v -0.811013 0.390836 0.221623
v -0.722973 0.314591 0.177603
v -0.602708 0.286683 0.161490
v -0.482444 0.314591 0.177603
v -0.394404 0.390836 0.221623
v -0.362179 0.494988 0.281755
vt 0.233764 0.920898
vt 0.219196 0.914756
vt 0.219196 0.871809
vt 0.233764 0.865151
vt 0.743676 0.504491
vt 0.737987 0.520194
vt 0.695831 0.520194
vt 0.688956 0.504491
vt 0.487305 0.812161
vt 0.481021 0.828501
vt 0.438848 0.828501
vt 0.432564 0.812161
vt 0.036514 0.918141
vt 0.020750 0.911494
vt 0.020750 0.868547
vt 0.036514 0.862394
vt 0.803543 0.617042
vt 0.798555 0.633840
vt 0.756516 0.637257
vt 0.748975 0.621477
vt 0.465285 0.691693
vt 0.467415 0.657238
vt 0.511303 0.660287
vt 0.496160 0.693838
vt 0.421044 0.717623
vt 0.423974 0.700329
vt 0.474668 0.706413
vt 0.137615 0.916104
vt 0.122692 0.909092
vt 0.122692 0.866159
vt 0.137615 0.860376
vt 0.020750 0.739810
vt 0.020750 0.614087
vt 0.108020 0.525208
vt 0.231439 0.525236
vt 0.318709 0.614156
vt 0.318709 0.739879
vt 0.231439 0.828758
vt 0.108020 0.828730
vt 0.654079 0.617042
vt 0.649091 0.633840
vt 0.607052 0.637257
vt 0.599511 0.621477
vt 0.810017 0.666330
vt 0.822277 0.710726
vt 0.745066 0.717001
vt 0.750258 0.671187
vt 0.489909 0.861816
vt 0.429960 0.861816
vt 0.387570 0.849842
vt 0.409028 0.820077
vt 0.660553 0.666330
vt 0.600794 0.671187
vt 0.557603 0.662685
vt 0.576668 0.631276
vt 0.408690 0.669514
vt 0.707067 0.662685
vt 0.726132 0.631276
vt 0.595602 0.717001
vt 0.594590 0.765393
vt 0.531885 0.753050
vt 0.539797 0.706016
vt 0.672813 0.710726
vt 0.391182 0.626982
vt 0.467056 0.611121
vt 0.498663 0.907065
vt 0.421206 0.907065
vt 0.689261 0.706016
vt 0.523762 0.615060
vt 0.366436 0.891594
vt 0.830812 0.758342
vt 0.828598 0.798301
vt 0.752463 0.804489
vt 0.744054 0.765393
vt 0.462240 0.562967
vt 0.525957 0.567394
vt 0.416418 0.955221
vt 0.354875 0.937837
vt 0.681348 0.758342
vt 0.376983 0.580790
vt 0.503452 0.955221
vt 0.681348 0.753050
vt 0.656270 0.804489
vt 0.641730 0.842838
vt 0.596999 0.842838
vt 0.579924 0.804489
vt 0.697436 0.793657
vt 0.602999 0.804489
vt 0.547972 0.793657
vt 0.449191 0.525215
vt 0.505106 0.529099
vt 0.421746 0.994875
vt 0.367740 0.979620
vt 0.679134 0.798301
vt 0.374374 0.540855
vt 0.498123 0.994875
vt 0.166689 0.410551
vt 0.118613 0.525208
vt 0.020750 0.425540
vt 0.135056 0.378334
vt 0.525957 0.859487
vt 0.565380 0.875062
vt 0.565395 0.920633
vt 0.525983 0.937267
vt 0.579985 0.992265
vt 0.597035 0.952857
vt 0.641766 0.952857
vt 0.656331 0.992265
vt 0.710298 0.937267
vt 0.673385 0.920633
vt 0.673370 0.875062
vt 0.710273 0.859487
vt 0.166689 0.300530
vt 0.118613 0.184845
vt 0.257012 0.184813
vt 0.211426 0.300520
vt 0.243060 0.332737
vt 0.354875 0.284480
vt 0.354875 0.425463
vt 0.243060 0.378309
vt 0.211426 0.410541
vt 0.257012 0.525176
vt 0.020750 0.284557
vt 0.135056 0.332762
vt 0.354875 0.284581
vt 0.517103 0.352984
vt 0.354875 0.425560
vt 0.452725 0.525215
vt 0.591106 0.525168
vt 0.688956 0.425447
vt 0.688956 0.284467
vt 0.591106 0.184813
vt 0.452725 0.184860
vt 0.660981 0.593801
vt 0.589078 0.599645
vt 0.158263 0.925806
vt 0.158263 0.852373
vt 0.416990 0.741550
vt 0.487649 0.726779
vt 0.810445 0.593801
vt 0.738541 0.599645
vt 0.058325 0.927338
vt 0.058325 0.853881
vt 0.762285 0.877931
vt 0.710298 0.837245
vt 0.716406 0.813485
vt 0.762285 0.804489
vt 0.528921 0.628834
vt 0.525957 0.622074
vt 0.253920 0.929397
vt 0.253920 0.855940
vt 0.313403 0.954478
vt 0.313403 0.828758
vt 0.751913 0.436220
vt 0.688956 0.412562
vt 0.688956 0.339130
vt 0.751913 0.310541
vt 0.754467 0.310541
vt 0.688956 0.284408
vt 0.688956 0.210946
vt 0.754467 0.184813
vt 0.122692 0.954478
vt 0.122692 0.828758
vt 0.830812 0.525215
vt 0.707751 0.535217
vt 0.405026 0.812161
vt 0.525957 0.786880
vt 0.219196 0.954436
vt 0.219196 0.828758
vt 0.681348 0.525215
vt 0.558287 0.535217
vt 0.350110 0.549035
vt 0.342154 0.543558
vt 0.343099 0.527166
vt 0.350110 0.525208
vt 0.354875 0.735483
vt 0.359042 0.726498
vt 0.370160 0.721050
vt 0.374590 0.727849
vt 0.694101 0.437037
vt 0.710215 0.436220
vt 0.762285 0.951372
vt 0.716406 0.942376
vt 0.710298 0.918616
vt 0.777136 0.436220
vt 0.793251 0.437037
vt 0.798395 0.504491
vt 0.342154 0.525208
vt 0.342154 0.592925
vt 0.335092 0.594192
vt 0.318709 0.549024
vt 0.318709 0.645081
vt 0.332972 0.594192
vt 0.339386 0.601680
vt 0.339386 0.671423
vt 0.746884 0.066151
vt 0.766773 0.066151
vt 0.780357 0.089680
vt 0.770413 0.106904
vt 0.820567 0.175278
vt 0.806755 0.175278
vt 0.823095 0.203579
vt 0.830001 0.191618
vt 0.739604 0.066151
vt 0.766773 0.113209
vt 0.801700 0.175278
vt 0.820567 0.207957
vt 0.855774 0.203579
vt 0.848868 0.191618
vt 0.817471 0.106904
vt 0.821111 0.113209
vt 0.858302 0.207957
vt 0.807526 0.089680
vt 0.872113 0.175278
vt 0.858302 0.175278
vt 0.841000 0.066151
vt 0.848279 0.066151
vt 0.877169 0.175278
vt 0.821110 0.066151
vt 0.817471 0.025397
vt 0.821110 0.019093
vt 0.858302 0.142599
vt 0.855774 0.146977
vt 0.807526 0.042622
vt 0.848868 0.158939
vt 0.820567 0.142599
vt 0.823095 0.146977
vt 0.780357 0.042622
vt 0.770413 0.025397
vt 0.830001 0.158939
vt 0.766773 0.019093
vt 0.793942 0.066151
vt 0.839434 0.175278
vt 0.870390 0.066151
vt 0.890279 0.066151
vt 0.903863 0.089680
vt 0.893919 0.106904
vt 0.906335 0.175278
vt 0.892523 0.175278
vt 0.908863 0.203579
vt 0.915769 0.191618
vt 0.863110 0.066151
vt 0.890279 0.113209
vt 0.887468 0.175278
vt 0.906335 0.207957
vt 0.941542 0.203579
vt 0.934636 0.191618
vt 0.940977 0.106904
vt 0.944617 0.113209
vt 0.944070 0.207957
vt 0.931032 0.089680
vt 0.957881 0.175278
vt 0.944070 0.175278
vt 0.964506 0.066151
vt 0.971785 0.066151
vt 0.962937 0.175278
vt 0.944616 0.066151
vt 0.940977 0.025397
vt 0.944616 0.019093
vt 0.944070 0.142599
vt 0.941542 0.146977
vt 0.931032 0.042622
vt 0.934636 0.158939
vt 0.906335 0.142599
vt 0.908863 0.146977
vt 0.903863 0.042622
vt 0.893919 0.025397
vt 0.915769 0.158939
vt 0.890279 0.019093
vt 0.917448 0.066151
vt 0.925202 0.175278
vn 0.749800 0.584200 0.310600
vn -0.310600 0.584200 0.749800
vn -0.310600 0.584200 -0.749800
vn -0.749800 0.584200 -0.310600
vn 0.749800 0.584200 -0.310600
vn -0.731900 -0.610300 -0.303200
vn -0.749800 0.584200 0.310600
vn 0.310600 0.584200 -0.749800
vn 0.000000 -1.000000 -0.000000
vn 0.310600 0.584200 0.749800
vn 0.817500 -0.465800 -0.338600
vn -0.303200 -0.610300 -0.731900
vn 0.303200 -0.610300 -0.731900
vn 0.303200 -0.610300 0.731900
vn 0.731900 -0.610300 -0.303200
vn -0.303200 -0.610300 0.731900
vn -0.731900 -0.610300 0.303200
vn 0.731900 -0.610300 0.303200
vn -0.371100 -0.244400 0.895900
vn 0.338600 -0.465800 0.817500
vn -0.817500 -0.465800 0.338600
vn -0.338600 -0.465800 -0.817500
vn 0.817500 -0.465800 0.338600
vn -0.338600 -0.465800 0.817500
vn -0.817500 -0.465800 -0.338600
vn 0.338600 -0.465800 -0.817500
vn 0.887100 0.279200 -0.367500
vn -0.895900 -0.244400 -0.371100
vn 0.371100 -0.244400 -0.895900
vn 0.371100 -0.244400 0.895900
vn -0.895900 -0.244400 0.371100
vn -0.371100 -0.244400 -0.895900
vn 0.895900 -0.244400 -0.371100
vn 0.895900 -0.244400 0.371100
vn 0.289700 0.653300 0.699400
vn 0.887100 0.279200 0.367500
vn -0.367500 0.279200 0.887100
vn -0.887100 0.279200 -0.367500
vn 0.367500 0.279200 -0.887100
vn 0.367500 0.279200 0.887100
vn -0.887100 0.279200 0.367500
vn -0.367500 0.279200 -0.887100
vn -0.163000 -0.904700 0.393600
vn -0.699400 0.653300 0.289700
vn -0.289700 0.653300 -0.699400
vn 0.699400 0.653300 -0.289700
vn 0.699400 0.653300 0.289700
vn -0.289700 0.653300 0.699400
vn -0.699400 0.653300 -0.289700
vn 0.289700 0.653300 -0.699400
vn -0.163000 -0.904700 -0.393600
vn 0.393600 -0.904700 -0.163000
vn 0.163000 -0.904700 0.393600
vn -0.393600 -0.904700 0.163000
vn -0.393600 -0.904700 -0.163000
vn 0.163000 -0.904700 -0.393600
vn 0.393600 -0.904700 0.163000
vn 0.658200 0.701800 0.272600
vn -0.272600 0.701800 0.658200
vn -0.658200 0.701800 -0.272600
vn 0.272600 0.701800 -0.658200
vn 0.272600 0.701800 0.658200
vn -0.658200 0.701800 0.272600
vn -0.272600 0.701800 -0.658200
vn 0.658200 0.701800 -0.272600
vn -0.128500 -0.956600 0.261500
vn 0.532600 0.514200 0.672200
vn -0.501200 0.355800 -0.788800
vn -0.501200 0.355800 0.788800
vn -0.030600 0.997000 0.071600
vn -0.885200 0.376100 -0.273800
vn -0.128500 -0.956600 -0.261500
vn -0.030600 0.997000 -0.071600
vn -0.885200 0.376100 0.273800
vn 0.532600 0.514200 -0.672200
vn -0.654700 0.378000 -0.654700
vn 0.654700 0.378000 -0.654700
vn -0.226000 0.487100 -0.843600
vn 0.226000 0.487100 -0.843600
vn 0.654700 0.755900 0.000000
vn -0.226000 0.974100 0.000000
vn 0.226000 0.974100 0.000000
vn -0.654700 0.755900 0.000000
vn 0.654700 0.378000 0.654700
vn -0.226000 0.487100 0.843600
vn 0.226000 0.487100 0.843600
vn -0.654700 0.378000 0.654700
vn -0.226000 -0.487100 0.843600
vn 0.226000 -0.487100 0.843600
vn -0.654700 -0.378000 0.654700
vn 0.654700 -0.378000 0.654700
vn 0.226000 -0.974100 -0.000000
vn -0.654700 -0.755900 -0.000000
vn 0.654700 -0.755900 -0.000000
vn -0.226000 -0.974100 -0.000000
vn -0.955300 0.147800 -0.256000
vn 0.955300 0.147800 -0.256000
vn -0.955300 0.295600 0.000000
vn 0.955300 0.295600 0.000000
vn -0.955300 0.147800 0.256000
vn 0.955300 0.147800 0.256000
vn -0.955300 -0.147800 0.256000
vn 0.955300 -0.147800 0.256000
vn -0.955300 -0.295600 -0.000000
vn 0.955300 -0.295600 -0.000000
vn 0.955300 -0.147800 -0.256000
vn 0.226000 -0.487100 -0.843600
vn -0.654700 -0.378000 -0.654700
vn 0.654700 -0.378000 -0.654700
vn -0.226000 -0.487100 -0.843600
vn -0.955300 -0.147800 -0.256000
usemtl Material
s off
f 70/1/1 6/2/1 18/3/1 68/4/1
f 66/5/2 17/6/2 16/7/2 67/8/2
f 72/9/3 14/10/3 13/11/3 73/12/3
f 71/13/4 15/14/4 14/15/4 72/16/4
f 69/17/5 12/18/5 6/19/5 70/20/5
f 15/21/6 21/22/6 20/23/6 14/24/6
f 67/25/7 16/26/7 15/21/7 71/27/7
f 73/28/8 13/29/8 12/30/8 69/31/8
f 1/32/9 2/33/9 3/34/9 4/35/9 5/36/9 7/37/9 8/38/9 9/39/9
f 68/40/10 18/41/10 17/42/10 66/43/10
f 11/44/11 26/45/11 25/46/11 10/47/11
f 14/10/12 20/48/12 19/49/12 13/11/12
f 13/11/13 19/49/13 11/50/13 12/51/13
f 18/41/14 24/52/14 23/53/14 17/42/14
f 12/18/15 11/44/15 10/47/15 6/19/15
f 17/42/16 23/53/16 22/54/16 16/55/16
f 16/26/17 22/56/17 21/22/17 15/21/17
f 6/19/18 10/47/18 24/57/18 18/58/18
f 31/59/19 39/60/19 38/61/19 30/62/19
f 24/52/20 32/63/20 31/59/20 23/53/20
f 22/56/21 30/64/21 29/65/21 21/22/21
f 20/48/22 28/66/22 27/67/22 19/49/22
f 10/47/23 25/46/23 32/68/23 24/57/23
f 23/53/24 31/59/24 30/62/24 22/54/24
f 21/22/25 29/65/25 28/69/25 20/23/25
f 19/49/26 27/67/26 26/70/26 11/50/26
f 34/71/27 42/72/27 41/73/27 33/74/27
f 29/65/28 37/75/28 36/76/28 28/69/28
f 27/67/29 35/77/29 34/78/29 26/70/29
f 32/63/30 40/79/30 39/60/30 31/59/30
f 30/64/31 38/80/31 37/75/31 29/65/31
f 28/66/32 36/81/32 35/77/32 27/67/32
f 26/45/33 34/71/33 33/74/33 25/46/33
f 25/46/34 33/74/34 40/82/34 32/68/34
f 48/83/35 56/84/35 55/85/35 47/86/35
f 33/74/36 41/73/36 48/87/36 40/82/36
f 39/60/37 47/88/37 46/89/37 38/61/37
f 37/75/38 45/90/38 44/91/38 36/76/38
f 35/77/39 43/92/39 42/93/39 34/78/39
f 40/79/40 48/94/40 47/88/40 39/60/40
f 38/80/41 46/95/41 45/90/41 37/75/41
f 36/81/42 44/96/42 43/92/42 35/77/42
f 51/97/43 59/98/43 58/99/43 50/100/43
f 46/101/44 54/102/44 53/103/44 45/104/44
f 44/105/45 52/106/45 51/107/45 43/108/45
f 42/109/46 50/110/46 49/111/46 41/112/46
f 41/112/47 49/111/47 56/84/47 48/83/47
f 47/86/48 55/85/48 54/102/48 46/101/48
f 45/104/49 53/103/49 52/106/49 44/105/49
f 43/108/50 51/107/50 50/110/50 42/109/50
f 56/113/51 64/114/51 63/115/51 55/116/51
f 54/117/52 62/118/52 61/119/52 53/120/52
f 52/121/53 60/122/53 59/98/53 51/97/53
f 50/100/54 58/99/54 57/123/54 49/124/54
f 49/124/55 57/123/55 64/114/55 56/113/55
f 55/116/56 63/115/56 62/118/56 54/117/56
f 53/120/57 61/119/57 60/122/57 52/121/57
f 57/125/58 65/126/58 64/127/58
f 63/128/59 65/126/59 62/129/59
f 61/130/60 65/126/60 60/131/60
f 59/132/61 65/126/61 58/133/61
f 64/127/62 65/126/62 63/128/62
f 62/129/63 65/126/63 61/130/63
f 60/131/64 65/126/64 59/132/64
f 58/133/65 65/126/65 57/125/65
f 79/134/10 68/40/10 66/43/10 74/135/10
f 81/136/8 73/28/8 69/31/8 76/137/8
f 75/138/7 67/25/7 71/27/7 77/139/7
f 76/140/5 69/17/5 70/20/5 80/141/5
f 77/142/4 71/13/4 72/16/4 78/143/4
f 74/144/66 86/145/66 87/146/66 75/147/66
f 66/43/67 82/148/67 86/149/67 74/135/67
f 80/150/1 70/1/1 68/4/1 79/151/1
f 1/152/1 80/150/1 79/151/1 2/153/1
f 3/154/2 74/155/2 75/156/2 4/157/2
f 7/158/3 78/159/3 81/160/3 8/161/3
f 5/162/4 77/142/4 78/143/4 7/163/4
f 9/164/5 76/140/5 80/141/5 1/165/5
f 4/166/7 75/138/7 77/139/7 5/167/7
f 8/168/8 81/136/8 76/137/8 9/169/8
f 2/170/10 79/134/10 74/135/10 3/171/10
f 88/172/68 84/173/68 85/174/68 89/175/68
f 86/176/69 82/177/69 83/178/69 87/179/69
f 67/8/70 83/180/70 82/181/70 66/5/70
f 75/138/71 87/179/71 83/178/71 67/25/71
f 78/182/72 88/183/72 89/184/72 81/144/72
f 73/5/73 85/185/73 84/186/73 72/187/73
f 72/188/74 84/189/74 88/190/74 78/191/74
f 81/192/75 89/193/75 85/194/75 73/195/75
f 91/196/76 90/197/76 95/198/76 96/199/76
f 94/200/77 93/201/77 98/202/77 99/203/77
f 92/204/78 91/196/78 96/199/78 97/205/78
f 93/201/79 92/206/79 97/207/79 98/202/79
f 99/203/80 98/202/80 104/208/80 105/209/80
f 97/205/81 96/199/81 102/210/81 103/211/81
f 98/202/82 97/207/82 103/212/82 104/208/82
f 96/199/83 95/198/83 101/213/83 102/210/83
f 105/209/84 104/208/84 109/214/84 110/215/84
f 103/211/85 102/210/85 107/216/85 108/217/85
f 104/208/86 103/212/86 108/218/86 109/214/86
f 102/210/87 101/213/87 106/219/87 107/216/87
f 108/217/88 107/216/88 112/220/88 113/221/88
f 109/214/89 108/218/89 113/222/89 114/223/89
f 107/216/90 106/219/90 111/224/90 112/220/90
f 110/215/91 109/214/91 114/223/91 115/225/91
f 114/223/92 113/222/92 118/226/92 119/227/92
f 112/220/93 111/224/93 116/228/93 117/229/93
f 115/225/94 114/223/94 119/227/94 120/230/94
f 113/221/95 112/220/95 117/229/95 118/231/95
f 90/197/96 100/232/96 95/198/96
f 121/233/97 94/200/97 99/203/97
f 95/198/98 100/232/98 101/213/98
f 121/233/99 99/203/99 105/209/99
f 101/213/100 100/232/100 106/219/100
f 121/233/101 105/209/101 110/215/101
f 106/219/102 100/232/102 111/224/102
f 121/233/103 110/215/103 115/225/103
f 111/224/104 100/232/104 116/228/104
f 121/233/105 115/225/105 120/230/105
f 121/233/106 120/230/106 94/200/106
f 119/227/107 118/226/107 92/206/107 93/201/107
f 117/229/108 116/228/108 90/197/108 91/196/108
f 120/230/109 119/227/109 93/201/109 94/200/109
f 118/231/110 117/229/110 91/196/110 92/204/110
f 116/228/111 100/232/111 90/197/111
f 123/234/76 122/235/76 127/236/76 128/237/76
f 126/238/77 125/239/77 130/240/77 131/241/77
f 124/242/78 123/234/78 128/237/78 129/243/78
f 125/239/79 124/244/79 129/245/79 130/240/79
f 131/241/80 130/240/80 136/246/80 137/247/80
f 129/243/81 128/237/81 134/248/81 135/249/81
f 130/240/82 129/245/82 135/250/82 136/246/82
f 128/237/83 127/236/83 133/251/83 134/248/83
f 137/247/84 136/246/84 141/252/84 142/253/84
f 135/249/85 134/248/85 139/254/85 140/255/85
f 136/246/86 135/250/86 140/256/86 141/252/86
f 134/248/87 133/251/87 138/257/87 139/254/87
f 140/255/88 139/254/88 144/258/88 145/259/88
f 141/252/89 140/256/89 145/260/89 146/261/89
f 139/254/90 138/257/90 143/262/90 144/258/90
f 142/253/91 141/252/91 146/261/91 147/263/91
f 146/261/92 145/260/92 150/264/92 151/265/92
f 144/258/93 143/262/93 148/266/93 149/267/93
f 147/263/94 146/261/94 151/265/94 152/268/94
f 145/259/95 144/258/95 149/267/95 150/269/95
f 122/235/96 132/270/96 127/236/96
f 153/271/97 126/238/97 131/241/97
f 127/236/98 132/270/98 133/251/98
f 153/271/99 131/241/99 137/247/99
f 133/251/100 132/270/100 138/257/100
f 153/271/101 137/247/101 142/253/101
f 138/257/102 132/270/102 143/262/102
f 153/271/103 142/253/103 147/263/103
f 143/262/104 132/270/104 148/266/104
f 153/271/105 147/263/105 152/268/105
f 153/271/106 152/268/106 126/238/106
f 151/265/107 150/264/107 124/244/107 125/239/107
f 149/267/108 148/266/108 122/235/108 123/234/108
f 152/268/109 151/265/109 125/239/109 126/238/109
f 150/269/110 149/267/110 123/234/110 124/242/110
f 148/266/111 132/270/111 122/235/111
