# Blender v2.75 (sub 0) OBJ File: 'LevelTest.blend'
# www.blender.org
mtllib sTree.mtl
o ground.004_Cube.006
v -0.395428 -0.784092 0.954648
v -0.954648 -0.784092 0.395428
v -0.954648 -0.784092 -0.395429
v -0.395428 -0.784092 -0.954648
v 0.395428 -0.784092 -0.954648
v 0.000000 3.308993 -0.000000
v 0.954648 -0.784092 -0.395429
v 0.954648 -0.784092 0.395428
v 0.395428 -0.784092 0.954648
v -0.144968 -2.486841 0.349984
v -0.144968 -0.617553 0.349984
v -0.349984 -2.486841 0.144968
v -0.349984 -0.617553 0.144968
v -0.349984 -2.486841 -0.144968
v -0.349984 -0.617553 -0.144968
v -0.144968 -2.486841 -0.349984
v -0.144968 -0.617553 -0.349984
v 0.144968 -2.486841 -0.349984
v 0.144968 -0.617553 -0.349984
v 0.349984 -2.486841 -0.144968
v 0.349984 -0.617553 -0.144968
v 0.349984 -2.486841 0.144968
v 0.349984 -0.617553 0.144968
v 0.144968 -2.486841 0.349984
v 0.144968 -0.617553 0.349984
vt 0.685408 0.488629
vt 0.596562 0.454843
vt 0.685408 0.421057
vt 0.639818 0.651763
vt 0.550973 0.570196
vt 0.639818 0.603982
vt 0.685408 0.536410
vt 0.443681 0.590797
vt 0.550973 0.653781
vt 0.434286 0.649779
vt 0.492014 0.543838
vt 0.550973 0.536410
vt 0.685408 0.373276
vt 0.639818 0.536410
vt 0.639818 0.577200
vt 0.650798 0.577200
vt 0.650798 0.617989
vt 0.666325 0.577200
vt 0.666325 0.617989
vt 0.677305 0.577200
vt 0.677305 0.617989
vt 0.703812 0.601062
vt 0.688284 0.601062
vt 0.688284 0.574095
vt 0.677305 0.609343
vt 0.677305 0.582376
vt 0.650798 0.536410
vt 0.666325 0.536410
vt 0.677305 0.536410
vt 0.677305 0.547448
vt 0.703812 0.536410
vt 0.596562 0.421057
vt 0.596562 0.488629
vt 0.534168 0.462648
vt 0.534168 0.447039
vt 0.523188 0.436001
vt 0.481816 0.373276
vt 0.549033 0.373276
vt 0.434286 0.421057
vt 0.507661 0.436001
vt 0.434286 0.488629
vt 0.496681 0.447039
vt 0.496681 0.462648
vt 0.507661 0.473686
vt 0.549033 0.536410
vt 0.481816 0.536410
vt 0.523188 0.473686
vt 0.639818 0.617989
vt 0.703812 0.574095
vt 0.714791 0.563057
vt 0.714791 0.547448
vt 0.688284 0.536410
vt 0.677305 0.563057
vn 0.688600 0.227100 0.688600
vn -0.688600 0.227100 0.688600
vn 0.973900 0.227100 0.000000
vn 0.688600 0.227100 -0.688600
vn 0.000000 0.227100 -0.973900
vn -0.688600 0.227100 -0.688600
vn 0.000000 0.227100 0.973900
vn -0.973900 0.227100 0.000000
vn -0.707100 0.000000 0.707100
vn -1.000000 0.000000 0.000000
vn -0.707100 0.000000 -0.707100
vn 0.000000 0.000000 -1.000000
vn 0.707100 0.000000 -0.707100
vn 1.000000 0.000000 0.000000
vn 0.000000 0.000000 1.000000
vn 0.707100 0.000000 0.707100
vn 0.000000 -1.000000 0.000000
vn -0.187800 -0.964100 0.187800
vn 0.000000 -0.964100 0.265500
vn 0.187800 -0.964100 0.187800
vn 0.265500 -0.964100 0.000000
vn 0.187800 -0.964100 -0.187800
vn 0.000000 -0.964100 -0.265500
vn -0.187800 -0.964100 -0.187800
vn -0.265500 -0.964100 0.000000
g ground.004_Cube.006_Material.004
usemtl Material.004
s off
f 8/1/1 6/2/1 9/3/1
f 1/4/2 6/5/2 2/6/2
f 7/7/3 6/2/3 8/1/3
f 5/8/4 6/9/4 7/10/4
f 4/11/5 6/9/5 5/8/5
f 3/12/6 6/9/6 4/11/6
f 9/3/7 6/2/7 1/13/7
f 2/6/8 6/5/8 3/14/8
f 11/15/9 13/16/9 12/17/9
f 13/16/10 15/18/10 14/19/10
f 15/18/11 17/20/11 16/21/11
f 17/22/12 19/23/12 18/24/12
f 19/23/13 21/25/13 20/26/13
f 21/14/14 23/27/14 22/16/14
f 25/28/15 11/29/15 10/20/15
f 23/27/16 25/28/16 24/18/16
f 10/24/17 14/30/17 18/31/17
f 5/32/18 7/33/18 21/34/18
f 5/32/19 19/35/19 17/36/19
f 3/37/20 4/38/20 17/36/20
f 2/39/21 3/37/21 15/40/21
f 1/41/22 2/39/22 13/42/22
f 1/41/23 11/43/23 25/44/23
f 8/45/24 9/46/24 25/44/24
f 8/45/25 23/47/25 21/34/25
f 10/48/9 11/15/9 12/17/9
f 12/17/10 13/16/10 14/19/10
f 14/19/11 15/18/11 16/21/11
f 16/49/12 17/22/12 18/24/12
f 18/24/13 19/23/13 20/26/13
f 20/15/14 21/14/14 22/16/14
f 24/18/15 25/28/15 10/20/15
f 22/16/16 23/27/16 24/18/16
f 22/50/17 24/49/17 10/24/17
f 18/31/17 20/51/17 22/50/17
f 14/30/17 16/52/17 18/31/17
f 10/24/17 12/53/17 14/30/17
f 18/31/17 22/50/17 10/24/17
f 19/35/18 5/32/18 21/34/18
f 4/38/19 5/32/19 17/36/19
f 15/40/20 3/37/20 17/36/20
f 13/42/21 2/39/21 15/40/21
f 11/43/22 1/41/22 13/42/22
f 9/46/23 1/41/23 25/44/23
f 23/47/24 8/45/24 25/44/24
f 7/33/25 8/45/25 21/34/25
