# Blender v2.75 (sub 0) OBJ File: 'LevelTest.blend'
# www.blender.org
mtllib treetrunk.mtl
o ground.039_Cube.053
v -0.350186 -2.220891 0.845423
v -0.350186 2.294570 0.845423
v -0.845423 -2.220891 0.350186
v -0.845423 2.294570 0.350186
v -0.845423 -2.220891 -0.350186
v -0.845423 2.294570 -0.350186
v -0.350186 -2.220891 -0.845423
v -0.350186 2.294570 -0.845423
v 0.350186 -2.220891 -0.845423
v 0.350186 2.294570 -0.845423
v 0.845423 -2.220891 -0.350186
v 0.845423 2.294570 -0.350186
v 0.845423 -2.220891 0.350186
v 0.845423 2.294570 0.350186
v 0.350186 -2.220891 0.845423
v 0.350186 2.294570 0.845423
vt 0.639818 0.577200
vt 0.650798 0.577200
vt 0.650798 0.617989
vt 0.666325 0.577200
vt 0.666325 0.617989
vt 0.677305 0.577200
vt 0.677305 0.617989
vt 0.703812 0.601062
vt 0.688284 0.601062
vt 0.688284 0.574095
vt 0.677305 0.609343
vt 0.677305 0.582376
vt 0.639818 0.536410
vt 0.650798 0.536410
vt 0.666325 0.536410
vt 0.677305 0.536410
vt 0.677305 0.547448
vt 0.703812 0.536410
vt 0.639818 0.617989
vt 0.703812 0.574095
vt 0.714791 0.563057
vt 0.714791 0.547448
vt 0.688284 0.536410
vt 0.677305 0.563057
vn -0.707100 0.000000 0.707100
vn -1.000000 0.000000 0.000000
vn -0.707100 0.000000 -0.707100
vn 0.000000 0.000000 -1.000000
vn 0.707100 0.000000 -0.707100
vn 1.000000 0.000000 0.000000
vn 0.000000 0.000000 1.000000
vn 0.707100 0.000000 0.707100
vn 0.000000 -1.000000 0.000000
g ground.039_Cube.053_Material.004
usemtl Material.004
s off
f 2/1/1 4/2/1 3/3/1
f 4/2/2 6/4/2 5/5/2
f 6/4/3 8/6/3 7/7/3
f 8/8/4 10/9/4 9/10/4
f 10/9/5 12/11/5 11/12/5
f 12/13/6 14/14/6 13/2/6
f 16/15/7 2/16/7 1/6/7
f 14/14/8 16/15/8 15/4/8
f 1/10/9 5/17/9 9/18/9
f 1/19/1 2/1/1 3/3/1
f 3/3/2 4/2/2 5/5/2
f 5/5/3 6/4/3 7/7/3
f 7/20/4 8/8/4 9/10/4
f 9/10/5 10/9/5 11/12/5
f 11/1/6 12/13/6 13/2/6
f 15/4/7 16/15/7 1/6/7
f 13/2/8 14/14/8 15/4/8
f 13/21/9 15/20/9 1/10/9
f 9/18/9 11/22/9 13/21/9
f 5/17/9 7/23/9 9/18/9
f 1/10/9 3/24/9 5/17/9
f 9/18/9 13/21/9 1/10/9
