# Blender v2.75 (sub 0) OBJ File: 'LevelTest.blend'
# www.blender.org
mtllib treetop.mtl
o ground.005_Cube.007
v -1.515924 -4.943637 3.659764
v -3.659765 -4.943637 1.515924
v -3.659765 -4.943637 -1.515924
v -1.515925 -4.943637 -3.659764
v 1.515923 -4.943637 -3.659764
v -0.000000 4.943635 0.000000
v 3.659765 -4.943637 -1.515924
v 3.659764 -4.943637 1.515924
v 1.515924 -4.943637 3.659764
v -0.350186 -4.541344 0.845423
v -0.845424 -4.541344 0.350186
v -0.845424 -4.541344 -0.350186
v -0.350186 -4.541344 -0.845423
v 0.350185 -4.541344 -0.845423
v 0.845423 -4.541344 -0.350186
v 0.845423 -4.541344 0.350186
v 0.350185 -4.541344 0.845423
vt 0.685408 0.488629
vt 0.596562 0.454843
vt 0.685408 0.421057
vt 0.639818 0.651763
vt 0.550973 0.570196
vt 0.639818 0.603982
vt 0.685408 0.536410
vt 0.443681 0.590797
vt 0.550973 0.653781
vt 0.434286 0.649779
vt 0.492014 0.543838
vt 0.550973 0.536410
vt 0.685408 0.373276
vt 0.639818 0.536410
vt 0.596562 0.488629
vt 0.534168 0.462648
vt 0.534168 0.447039
vt 0.596562 0.421057
vt 0.523188 0.436001
vt 0.549033 0.373276
vt 0.507661 0.436001
vt 0.481816 0.373276
vt 0.496681 0.447039
vt 0.434286 0.421057
vt 0.496681 0.462648
vt 0.481816 0.536410
vt 0.434286 0.488629
vt 0.507661 0.473686
vt 0.523188 0.473686
vt 0.549033 0.536410
vn 0.663100 0.347100 0.663100
vn -0.663100 0.347100 0.663100
vn 0.937800 0.347100 0.000000
vn 0.663100 0.347100 -0.663100
vn 0.000000 0.347100 -0.937800
vn -0.663100 0.347100 -0.663100
vn 0.000000 0.347100 0.937800
vn -0.937800 0.347100 0.000000
vn -0.100100 -0.989900 0.100100
vn 0.000000 -0.989900 0.141500
vn 0.100100 -0.989900 0.100100
vn 0.141500 -0.989900 0.000000
vn 0.100100 -0.989900 -0.100100
vn -0.000000 -0.989900 -0.141500
vn -0.100100 -0.989900 -0.100100
vn -0.141500 -0.989900 0.000000
g ground.005_Cube.007_Material.004
usemtl Material.004
s off
f 8/1/1 6/2/1 9/3/1
f 1/4/2 6/5/2 2/6/2
f 7/7/3 6/2/3 8/1/3
f 5/8/4 6/9/4 7/10/4
f 4/11/5 6/9/5 5/8/5
f 3/12/6 6/9/6 4/11/6
f 9/3/7 6/2/7 1/13/7
f 2/6/8 6/5/8 3/14/8
f 7/15/9 15/16/9 14/17/9
f 5/18/10 14/17/10 13/19/10
f 4/20/11 13/19/11 12/21/11
f 3/22/12 12/21/12 11/23/12
f 2/24/13 11/23/13 10/25/13
f 9/26/14 1/27/14 10/25/14
f 9/26/15 17/28/15 16/29/15
f 8/30/16 16/29/16 15/16/16
f 5/18/9 7/15/9 14/17/9
f 4/20/10 5/18/10 13/19/10
f 3/22/11 4/20/11 12/21/11
f 2/24/12 3/22/12 11/23/12
f 1/27/13 2/24/13 10/25/13
f 17/28/14 9/26/14 10/25/14
f 8/30/15 9/26/15 16/29/15
f 7/15/16 8/30/16 15/16/16
