# Blender v2.75 (sub 0) OBJ File: 'LevelTest.blend'
# www.blender.org
mtllib vineBox.mtl
o Cube.004_Cube.023
v 1.666007 -1.782913 -1.666007
v 1.666007 1.782913 -1.666007
v 1.666007 -1.782913 1.666007
v 1.666007 1.782913 1.666007
v -1.666007 -1.782913 -1.666007
v -1.666007 1.782913 -1.666007
v -1.666007 -1.782913 1.666007
v -1.666007 1.782913 1.666007
vt 0.819171 0.426678
vt 0.911005 0.426678
vt 0.911005 0.518513
vt 0.727336 0.518513
vt 0.819171 0.518513
vt 0.819171 0.610348
vt 0.727336 0.426678
vt 0.911005 0.610348
vt 1.002840 0.518513
vt 0.819171 0.702182
vt 0.727336 0.702182
vt 0.727336 0.610348
vt 1.002840 0.426678
vn 1.000000 0.000000 0.000000
vn 0.000000 0.000000 1.000000
vn -1.000000 0.000000 0.000000
vn 0.000000 0.000000 -1.000000
vn 0.000000 -1.000000 0.000000
vn 0.000000 1.000000 0.000000
g Cube.004_Cube.023_Material.001
usemtl Material.001
s off
f 4/1/1 3/2/1 1/3/1
f 8/4/2 7/5/2 3/6/2
f 6/7/3 5/1/3 7/5/3
f 2/3/4 1/8/4 5/6/4
f 3/9/5 7/3/5 5/2/5
f 8/6/6 4/10/6 2/11/6
f 2/5/1 4/1/1 1/3/1
f 4/12/2 8/4/2 3/6/2
f 8/4/3 6/7/3 7/5/3
f 6/5/4 2/3/4 5/6/4
f 1/13/5 3/9/5 5/2/5
f 6/12/6 8/6/6 2/11/6
